<?xml version="1.0" encoding="utf-8" standalone="no"?>
<!DOCTYPE svg PUBLIC "-//W3C//DTD SVG 1.1//EN"
  "http://www.w3.org/Graphics/SVG/1.1/DTD/svg11.dtd">
<svg xmlns:xlink="http://www.w3.org/1999/xlink" width="856.314955pt" height="323.180446pt" viewBox="0 0 856.314955 323.180446" xmlns="http://www.w3.org/2000/svg" version="1.1">
 <metadata>
  <rdf:RDF xmlns:dc="http://purl.org/dc/elements/1.1/" xmlns:cc="http://creativecommons.org/ns#" xmlns:rdf="http://www.w3.org/1999/02/22-rdf-syntax-ns#">
   <cc:Work>
    <dc:type rdf:resource="http://purl.org/dc/dcmitype/StillImage"/>
    <dc:date>2026-09-11T15:21:19.391402</dc:date>
    <dc:format>image/svg+xml</dc:format>
    <dc:creator>
     <cc:Agent>
      <dc:title>Matplotlib v3.10.8, https://matplotlib.org/</dc:title>
     </cc:Agent>
    </dc:creator>
   </cc:Work>
  </rdf:RDF>
 </metadata>
 <defs>
  <style type="text/css">*{stroke-linejoin: round; stroke-linecap: butt}</style>
 </defs>
 <g id="figure_1">
  <g id="patch_1">
   <path d="M 0 323.180446
L 856.314955 323.180446
L 856.314955 0
L 0 0
z
" style="fill: #ffffff"/>
  </g>
  <g id="axes_1">
   <g id="patch_2">
    <path d="M 40.407813 284.021071
L 421.293527 284.021071
L 421.293527 22.7925
L 40.407813 22.7925
z
" style="fill: #ffffff"/>
   </g>
   <g id="matplotlib.axis_1">
    <g id="xtick_1">
     <g id="line2d_1">
      <defs>
       <path id="m3077f8d131" d="M 0 0
L 0 3.5
" style="stroke: #000000; stroke-width: 0.8"/>
      </defs>
      <g>
       <use xlink:href="#m3077f8d131" x="96.194104" y="284.021071" style="stroke: #000000; stroke-width: 0.8"/>
      </g>
     </g>
     <g id="text_1">
      <!-- 20 -->
      <g transform="translate(90.330041 299.014821) scale(0.1 -0.1)">
       <defs>
        <path id="MicrosoftYaHei-32" d="M 2666 3572
Q 2666 3963 2419 4186
Q 2172 4409 1747 4409
Q 1447 4409 1140 4256
Q 834 4103 569 3819
L 569 4413
Q 806 4659 1107 4790
Q 1409 4922 1816 4922
Q 2472 4922 2872 4570
Q 3272 4219 3272 3619
Q 3272 3084 3026 2693
Q 2781 2303 2188 1894
Q 1581 1475 1376 1294
Q 1172 1113 1090 947
Q 1009 781 1009 544
L 3416 544
L 3416 0
L 372 0
L 372 241
Q 372 659 486 951
Q 600 1244 862 1520
Q 1125 1797 1681 2184
Q 2250 2584 2458 2886
Q 2666 3188 2666 3572
z
" transform="scale(0.015625)"/>
        <path id="MicrosoftYaHei-30" d="M 284 2325
Q 284 3606 709 4264
Q 1134 4922 1941 4922
Q 3478 4922 3478 2441
Q 3478 1216 3045 567
Q 2613 -81 1831 -81
Q 1094 -81 689 534
Q 284 1150 284 2325
z
M 909 2353
Q 909 425 1888 425
Q 2850 425 2850 2384
Q 2850 4413 1906 4413
Q 909 4413 909 2353
z
" transform="scale(0.015625)"/>
       </defs>
       <use xlink:href="#MicrosoftYaHei-32"/>
       <use xlink:href="#MicrosoftYaHei-30" transform="translate(58.642578 0)"/>
      </g>
     </g>
    </g>
    <g id="xtick_2">
     <g id="line2d_2">
      <g>
       <use xlink:href="#m3077f8d131" x="173.140713" y="284.021071" style="stroke: #000000; stroke-width: 0.8"/>
      </g>
     </g>
     <g id="text_2">
      <!-- 40 -->
      <g transform="translate(167.27665 299.014821) scale(0.1 -0.1)">
       <defs>
        <path id="MicrosoftYaHei-34" d="M 2906 4841
L 2906 1644
L 3631 1644
L 3631 1138
L 2906 1138
L 2906 0
L 2313 0
L 2313 1138
L 53 1138
L 53 1616
Q 656 2294 1265 3178
Q 1875 4063 2272 4841
L 2906 4841
z
M 741 1644
L 2313 1644
L 2313 3950
Q 1988 3366 1616 2817
Q 1244 2269 741 1644
z
" transform="scale(0.015625)"/>
       </defs>
       <use xlink:href="#MicrosoftYaHei-34"/>
       <use xlink:href="#MicrosoftYaHei-30" transform="translate(58.642578 0)"/>
      </g>
     </g>
    </g>
    <g id="xtick_3">
     <g id="line2d_3">
      <g>
       <use xlink:href="#m3077f8d131" x="250.087322" y="284.021071" style="stroke: #000000; stroke-width: 0.8"/>
      </g>
     </g>
     <g id="text_3">
      <!-- 60 -->
      <g transform="translate(244.223259 299.014821) scale(0.1 -0.1)">
       <defs>
        <path id="MicrosoftYaHei-36" d="M 3181 4219
Q 2803 4413 2391 4413
Q 1763 4413 1381 3866
Q 1000 3319 994 2372
L 1009 2372
Q 1353 3038 2106 3038
Q 2734 3038 3109 2628
Q 3484 2219 3484 1541
Q 3484 831 3051 375
Q 2619 -81 1947 -81
Q 1209 -81 789 495
Q 369 1072 369 2131
Q 369 3413 920 4167
Q 1472 4922 2372 4922
Q 2888 4922 3181 4781
L 3181 4219
z
M 1031 1584
Q 1031 1106 1286 765
Q 1541 425 1963 425
Q 2363 425 2613 719
Q 2863 1013 2863 1475
Q 2863 1975 2627 2253
Q 2391 2531 1956 2531
Q 1544 2531 1287 2250
Q 1031 1969 1031 1584
z
" transform="scale(0.015625)"/>
       </defs>
       <use xlink:href="#MicrosoftYaHei-36"/>
       <use xlink:href="#MicrosoftYaHei-30" transform="translate(58.642578 0)"/>
      </g>
     </g>
    </g>
    <g id="xtick_4">
     <g id="line2d_4">
      <g>
       <use xlink:href="#m3077f8d131" x="327.033931" y="284.021071" style="stroke: #000000; stroke-width: 0.8"/>
      </g>
     </g>
     <g id="text_4">
      <!-- 80 -->
      <g transform="translate(321.169868 299.014821) scale(0.1 -0.1)">
       <defs>
        <path id="MicrosoftYaHei-38" d="M 306 1350
Q 306 1769 556 2122
Q 806 2475 1200 2625
Q 884 2803 700 3081
Q 516 3359 516 3684
Q 516 4028 692 4312
Q 869 4597 1183 4759
Q 1497 4922 1875 4922
Q 2256 4922 2572 4761
Q 2888 4600 3063 4315
Q 3238 4031 3238 3684
Q 3238 3366 3058 3086
Q 2878 2806 2559 2625
Q 2953 2472 3200 2119
Q 3447 1766 3447 1350
Q 3447 938 3250 611
Q 3053 284 2690 103
Q 2328 -78 1875 -78
Q 1425 -78 1065 103
Q 706 284 506 612
Q 306 941 306 1350
z
M 906 1378
Q 906 947 1172 687
Q 1438 428 1878 428
Q 2309 428 2582 692
Q 2856 956 2856 1378
Q 2856 1778 2579 2051
Q 2303 2325 1878 2325
Q 1456 2325 1181 2058
Q 906 1791 906 1378
z
M 1081 3634
Q 1081 3309 1312 3076
Q 1544 2844 1878 2844
Q 2206 2844 2445 3078
Q 2684 3313 2684 3634
Q 2684 3963 2454 4191
Q 2225 4419 1878 4419
Q 1534 4419 1307 4195
Q 1081 3972 1081 3634
z
" transform="scale(0.015625)"/>
       </defs>
       <use xlink:href="#MicrosoftYaHei-38"/>
       <use xlink:href="#MicrosoftYaHei-30" transform="translate(58.642578 0)"/>
      </g>
     </g>
    </g>
    <g id="xtick_5">
     <g id="line2d_5">
      <g>
       <use xlink:href="#m3077f8d131" x="403.98054" y="284.021071" style="stroke: #000000; stroke-width: 0.8"/>
      </g>
     </g>
     <g id="text_5">
      <!-- 100 -->
      <g transform="translate(395.184446 299.014821) scale(0.1 -0.1)">
       <defs>
        <path id="MicrosoftYaHei-31" d="M 1781 0
L 1781 4141
Q 1638 3997 1295 3819
Q 953 3641 663 3569
L 663 4169
Q 1047 4275 1484 4508
Q 1922 4741 2156 4947
L 2388 4947
L 2388 0
L 1781 0
z
" transform="scale(0.015625)"/>
       </defs>
       <use xlink:href="#MicrosoftYaHei-31"/>
       <use xlink:href="#MicrosoftYaHei-30" transform="translate(58.642578 0)"/>
       <use xlink:href="#MicrosoftYaHei-30" transform="translate(117.285156 0)"/>
      </g>
     </g>
    </g>
    <g id="text_6">
     <!-- 实际置信度覆盖率（%） -->
     <g transform="translate(176.402232 313.494509) scale(0.1 -0.1)">
      <defs>
       <path id="MicrosoftYaHei-5b9e" d="M 113 -397
Q 2419 34 3081 972
L 213 972
L 213 1434
L 3313 1434
Q 3525 2084 3506 3703
L 4031 3703
Q 4031 2097 3856 1434
L 6225 1434
L 6225 972
L 3681 972
Q 3631 872 3563 759
Q 4900 197 6181 -403
L 5906 -878
Q 4569 -197 3263 391
Q 2413 -441 413 -891
Q 269 -616 113 -397
z
M 331 4422
L 3194 4422
Q 3038 4703 2775 5078
L 3231 5334
Q 3438 5059 3731 4609
L 3388 4422
L 6063 4422
L 6063 3303
L 5563 3303
L 5563 3959
L 831 3959
L 831 3303
L 331 3303
L 331 4422
z
M 1100 2734
Q 1819 2409 2450 2053
L 2181 1622
Q 1556 2003 863 2334
L 1100 2734
z
M 1663 3691
Q 2388 3341 2981 2984
L 2700 2559
Q 2119 2934 1419 3322
L 1663 3691
z
" transform="scale(0.015625)"/>
       <path id="MicrosoftYaHei-9645" d="M 2256 1678
Q 2419 503 1656 334
Q 1413 284 1025 328
Q 975 584 888 834
Q 1219 753 1469 784
Q 1906 834 1763 1678
Q 1675 2166 1169 2828
Q 1425 3591 1681 4491
L 850 4491
L 850 -841
L 375 -841
L 375 4953
L 2200 4953
L 2200 4503
Q 1913 3572 1694 2884
Q 2194 2203 2256 1678
z
M 2150 3228
L 6225 3228
L 6225 2766
L 4425 2766
L 4425 16
Q 4425 -747 3688 -747
Q 3394 -747 2938 -741
Q 2881 -403 2838 -209
Q 3313 -259 3575 -259
Q 3938 -259 3938 122
L 3938 2766
L 2150 2766
L 2150 3228
z
M 2488 4803
L 5888 4803
L 5888 4341
L 2488 4341
L 2488 4803
z
M 2969 2097
L 3431 1928
Q 2988 747 2481 -222
Q 2206 -72 2038 -3
Q 2594 1003 2969 2097
z
M 4900 1872
L 5331 2084
Q 5844 1041 6300 53
L 5844 -166
Q 5494 641 4900 1872
z
" transform="scale(0.015625)"/>
       <path id="MicrosoftYaHei-7f6e" d="M 94 -284
L 1025 -284
L 1025 2609
L 2938 2609
L 2938 3016
L 244 3016
L 244 3366
L 2938 3366
L 2938 3697
L 3388 3697
L 3388 3366
L 6150 3366
L 6150 3016
L 3388 3016
L 3388 2609
L 5431 2609
L 5431 -284
L 6294 -284
L 6294 -647
L 94 -647
L 94 -284
z
M 638 5034
L 5756 5034
L 5756 3641
L 5331 3641
L 5331 3784
L 1069 3784
L 1069 3641
L 638 3641
L 638 5034
z
M 1463 -284
L 4994 -284
L 4994 116
L 1463 116
L 1463 -284
z
M 1463 441
L 4994 441
L 4994 834
L 1463 834
L 1463 441
z
M 1463 1159
L 4994 1159
L 4994 1553
L 1463 1553
L 1463 1159
z
M 4994 2272
L 1463 2272
L 1463 1878
L 4994 1878
L 4994 2272
z
M 5331 4697
L 4181 4697
L 4181 4122
L 5331 4122
L 5331 4697
z
M 2625 4122
L 3769 4122
L 3769 4697
L 2625 4697
L 2625 4122
z
M 1069 4122
L 2213 4122
L 2213 4697
L 1069 4697
L 1069 4122
z
" transform="scale(0.015625)"/>
       <path id="MicrosoftYaHei-4fe1" d="M 2300 1434
L 5856 1434
L 5856 -853
L 5375 -853
L 5375 -478
L 2781 -478
L 2781 -853
L 2300 -853
L 2300 1434
z
M 81 2303
Q 1000 3666 1463 5316
L 1950 5178
Q 1678 4338 1356 3628
L 1356 -853
L 894 -853
L 894 2713
Q 606 2209 288 1791
Q 188 2053 81 2303
z
M 5375 1009
L 2781 1009
L 2781 -53
L 5375 -53
L 5375 1009
z
M 1888 4472
L 3928 4472
Q 3741 4794 3538 5109
L 3956 5328
Q 4181 4991 4400 4616
L 4128 4472
L 6288 4472
L 6288 4034
L 1888 4034
L 1888 4472
z
M 2231 3453
L 5919 3453
L 5919 3028
L 2231 3028
L 2231 3453
z
M 2231 2447
L 5919 2447
L 5919 2022
L 2231 2022
L 2231 2447
z
" transform="scale(0.015625)"/>
       <path id="MicrosoftYaHei-5ea6" d="M 1550 1216
L 1550 1628
L 5469 1628
L 5469 1222
Q 4903 613 4147 163
Q 5050 -200 6263 -309
L 6019 -797
Q 4625 -603 3644 -109
Q 2600 -619 1250 -866
Q 1150 -666 994 -416
Q 2231 -222 3166 166
Q 2497 600 2066 1216
L 1550 1216
z
M 1363 3541
L 2294 3541
L 2294 4066
L 2769 4066
L 2769 3541
L 4538 3541
L 4538 4072
L 5013 4072
L 5013 3541
L 6150 3541
L 6150 3128
L 5013 3128
L 5013 1928
L 4538 1928
L 4538 2147
L 2769 2147
L 2769 1922
L 2294 1922
L 2294 3128
L 1363 3128
L 1363 3541
z
M 3025 5172
L 3481 5391
Q 3694 5056 3909 4634
L 6213 4634
L 6213 4197
L 1225 4197
L 1225 2316
Q 1225 178 394 -872
Q 238 -666 38 -447
Q 725 397 738 2347
L 738 4634
L 3331 4634
Q 3188 4909 3025 5172
z
M 2769 2547
L 4538 2547
L 4538 3128
L 2769 3128
L 2769 2547
z
M 4819 1216
L 2588 1216
Q 3031 728 3656 391
Q 4334 741 4819 1216
z
" transform="scale(0.015625)"/>
       <path id="MicrosoftYaHei-8986" d="M 1706 191
Q 2394 572 2869 1028
L 2363 1028
L 2363 2247
Q 2231 2097 2094 1953
Q 1975 2122 1825 2259
Q 2319 2703 2619 3272
L 3050 3272
Q 2988 3153 2925 3041
L 5950 3041
L 5950 2753
L 2744 2753
Q 2644 2603 2525 2453
L 5638 2453
L 5638 922
L 5238 922
L 5238 1028
L 3344 1028
Q 3194 866 3038 722
L 5588 722
L 5588 447
Q 5094 72 4538 -184
Q 5288 -341 6306 -372
Q 6269 -447 6106 -766
Q 4856 -684 3981 -403
Q 3094 -709 1981 -866
Q 1906 -684 1750 -484
Q 2706 -384 3450 -184
Q 3000 47 2650 378
Q 2325 122 1981 -78
Q 1963 -59 1706 191
z
M 631 4353
L 2225 4353
L 2225 4722
L 300 4722
L 300 5059
L 6113 5059
L 6113 4722
L 4181 4722
L 4181 4353
L 5775 4353
L 5775 3234
L 5363 3234
L 5363 3347
L 1044 3347
L 1044 3234
L 631 3234
L 631 4353
z
M 1563 2084
L 1925 1884
Q 1656 1497 1375 1166
L 1375 -834
L 975 -834
L 975 734
Q 713 478 444 266
Q 281 453 150 566
Q 944 1166 1563 2084
z
M 2763 1309
L 5238 1309
L 5238 1609
L 2763 1609
L 2763 1309
z
M 5238 2172
L 2763 2172
L 2763 1872
L 5238 1872
L 5238 2172
z
M 1388 3191
L 1744 2991
Q 1156 2209 475 1641
Q 344 1778 156 1941
Q 844 2428 1388 3191
z
M 5363 4059
L 4181 4059
L 4181 3641
L 5363 3641
L 5363 4059
z
M 2613 3641
L 3794 3641
L 3794 4059
L 2613 4059
L 2613 3641
z
M 1044 3641
L 2225 3641
L 2225 4059
L 1044 4059
L 1044 3641
z
M 4981 447
L 3088 447
Q 3481 147 3969 -22
Q 4506 159 4981 447
z
M 2613 4353
L 3794 4353
L 3794 4722
L 2613 4722
L 2613 4353
z
" transform="scale(0.015625)"/>
       <path id="MicrosoftYaHei-76d6" d="M 138 -172
L 800 -172
L 800 1578
L 5569 1578
L 5569 -172
L 6269 -172
L 6269 -609
L 138 -609
L 138 -172
z
M 250 2534
L 2956 2534
L 2956 3103
L 600 3103
L 600 3509
L 2956 3509
L 2956 4072
L 325 4072
L 325 4491
L 2081 4491
Q 1866 4794 1631 5091
L 2013 5359
Q 2319 5016 2556 4722
L 2228 4491
L 3725 4491
Q 4053 4931 4306 5353
L 4794 5053
Q 4556 4775 4306 4491
L 6075 4491
L 6075 4072
L 3425 4072
L 3425 3509
L 5800 3509
L 5800 3103
L 3425 3103
L 3425 2534
L 6150 2534
L 6150 2116
L 250 2116
L 250 2534
z
M 5100 1172
L 4119 1172
L 4119 -172
L 5100 -172
L 5100 1172
z
M 1269 -172
L 2238 -172
L 2238 1172
L 1269 1172
L 1269 -172
z
M 2694 -172
L 3663 -172
L 3663 1172
L 2694 1172
L 2694 -172
z
" transform="scale(0.015625)"/>
       <path id="MicrosoftYaHei-7387" d="M 2525 2009
Q 2622 2016 3928 2081
Q 3772 2300 3625 2491
L 3963 2703
Q 4413 2203 4794 1653
L 4394 1403
Q 4284 1569 4178 1725
Q 2991 1659 2213 1597
Q 2075 1584 1881 1541
L 1725 1966
Q 1913 2028 2006 2084
Q 2534 2441 3050 2913
Q 2597 2894 2275 2866
Q 2144 2847 1988 2809
L 1800 3191
Q 1956 3247 2088 3366
Q 2509 3722 2875 4228
L 231 4228
L 231 4666
L 3031 4666
Q 2878 4944 2744 5153
L 3194 5372
Q 3438 5000 3616 4666
L 6175 4666
L 6175 4228
L 3053 4228
L 3350 4072
Q 2844 3553 2494 3247
Q 2850 3256 3425 3269
Q 3675 3519 3925 3797
L 4356 3547
Q 3363 2603 2525 2009
z
M 144 991
L 2994 991
L 2994 1541
L 3488 1541
L 3488 991
L 6275 991
L 6275 553
L 3488 553
L 3488 -853
L 2994 -853
L 2994 553
L 144 553
L 144 991
z
M 1719 2672
L 1944 2303
Q 1200 1866 425 1409
L 163 1828
Q 813 2134 1719 2672
z
M 4856 2678
Q 5750 2172 6250 1816
L 5975 1409
Q 5331 1909 4600 2341
L 4856 2678
z
M 5994 3591
Q 5519 3178 4963 2809
L 4644 3141
Q 5244 3534 5638 3928
L 5994 3591
z
M 363 3634
L 681 3941
Q 1200 3528 1588 3159
L 1238 2816
Q 875 3197 363 3634
z
" transform="scale(0.015625)"/>
       <path id="MicrosoftYaHei-ff08" d="M 5288 -1100
Q 4172 119 4172 1850
Q 4172 3603 5288 4838
L 5825 4838
Q 4716 3572 4716 1856
Q 4716 166 5819 -1100
L 5288 -1100
z
" transform="scale(0.015625)"/>
       <path id="MicrosoftYaHei-25" d="M 272 3619
Q 272 4213 589 4563
Q 906 4913 1444 4913
Q 1959 4913 2248 4591
Q 2538 4269 2538 3694
Q 2538 3122 2219 2765
Q 1900 2409 1372 2409
Q 872 2409 572 2740
Q 272 3072 272 3619
z
M 753 3650
Q 753 3247 928 3028
Q 1103 2809 1406 2809
Q 1719 2809 1889 3036
Q 2059 3263 2059 3675
Q 2059 4078 1892 4298
Q 1725 4519 1422 4519
Q 1113 4519 933 4289
Q 753 4059 753 3650
z
M 4647 4841
L 1538 -31
L 1016 -31
L 4125 4841
L 4647 4841
z
M 3172 1134
Q 3172 1728 3489 2083
Q 3806 2438 4341 2438
Q 4853 2438 5143 2114
Q 5434 1791 5434 1203
Q 5434 634 5112 279
Q 4791 -75 4272 -75
Q 3769 -75 3470 261
Q 3172 597 3172 1134
z
M 3650 1163
Q 3650 769 3825 548
Q 4000 328 4303 328
Q 4616 328 4786 556
Q 4956 784 4956 1194
Q 4956 1600 4786 1815
Q 4616 2031 4319 2031
Q 4000 2031 3825 1801
Q 3650 1572 3650 1163
z
" transform="scale(0.015625)"/>
       <path id="MicrosoftYaHei-ff09" d="M 1113 -1100
L 575 -1100
Q 1684 163 1684 1888
Q 1684 3581 581 4838
L 1113 4838
Q 2222 3628 2222 1888
Q 2222 128 1113 -1100
z
" transform="scale(0.015625)"/>
      </defs>
      <use xlink:href="#MicrosoftYaHei-5b9e"/>
      <use xlink:href="#MicrosoftYaHei-9645" transform="translate(100 0)"/>
      <use xlink:href="#MicrosoftYaHei-7f6e" transform="translate(200 0)"/>
      <use xlink:href="#MicrosoftYaHei-4fe1" transform="translate(300 0)"/>
      <use xlink:href="#MicrosoftYaHei-5ea6" transform="translate(400 0)"/>
      <use xlink:href="#MicrosoftYaHei-8986" transform="translate(500 0)"/>
      <use xlink:href="#MicrosoftYaHei-76d6" transform="translate(600 0)"/>
      <use xlink:href="#MicrosoftYaHei-7387" transform="translate(700 0)"/>
      <use xlink:href="#MicrosoftYaHei-ff08" transform="translate(800 0)"/>
      <use xlink:href="#MicrosoftYaHei-25" transform="translate(900 0)"/>
      <use xlink:href="#MicrosoftYaHei-ff09" transform="translate(988.964844 0)"/>
     </g>
    </g>
   </g>
   <g id="matplotlib.axis_2">
    <g id="ytick_1">
     <g id="line2d_6">
      <defs>
       <path id="m6d447382d4" d="M 0 0
L -3.5 0
" style="stroke: #000000; stroke-width: 0.8"/>
      </defs>
      <g>
       <use xlink:href="#m6d447382d4" x="40.407813" y="278.310526" style="stroke: #000000; stroke-width: 0.8"/>
      </g>
     </g>
     <g id="text_7">
      <!-- 0 -->
      <g transform="translate(27.54375 282.307401) scale(0.1 -0.1)">
       <use xlink:href="#MicrosoftYaHei-30"/>
      </g>
     </g>
    </g>
    <g id="ytick_2">
     <g id="line2d_7">
      <g>
       <use xlink:href="#m6d447382d4" x="40.407813" y="232.895407" style="stroke: #000000; stroke-width: 0.8"/>
      </g>
     </g>
     <g id="text_8">
      <!-- 10 -->
      <g transform="translate(21.679688 236.892282) scale(0.1 -0.1)">
       <use xlink:href="#MicrosoftYaHei-31"/>
       <use xlink:href="#MicrosoftYaHei-30" transform="translate(58.642578 0)"/>
      </g>
     </g>
    </g>
    <g id="ytick_3">
     <g id="line2d_8">
      <g>
       <use xlink:href="#m6d447382d4" x="40.407813" y="187.480289" style="stroke: #000000; stroke-width: 0.8"/>
      </g>
     </g>
     <g id="text_9">
      <!-- 20 -->
      <g transform="translate(21.679688 191.477164) scale(0.1 -0.1)">
       <use xlink:href="#MicrosoftYaHei-32"/>
       <use xlink:href="#MicrosoftYaHei-30" transform="translate(58.642578 0)"/>
      </g>
     </g>
    </g>
    <g id="ytick_4">
     <g id="line2d_9">
      <g>
       <use xlink:href="#m6d447382d4" x="40.407813" y="142.065171" style="stroke: #000000; stroke-width: 0.8"/>
      </g>
     </g>
     <g id="text_10">
      <!-- 30 -->
      <g transform="translate(21.679688 146.062046) scale(0.1 -0.1)">
       <defs>
        <path id="MicrosoftYaHei-33" d="M 447 809
Q 944 425 1569 425
Q 2069 425 2361 670
Q 2653 916 2653 1328
Q 2653 2247 1338 2247
L 934 2247
L 934 2753
L 1319 2753
Q 2484 2753 2484 3616
Q 2484 4413 1594 4413
Q 1084 4413 634 4069
L 634 4647
Q 1109 4922 1744 4922
Q 2363 4922 2738 4598
Q 3113 4275 3113 3759
Q 3113 2809 2144 2538
L 2144 2525
Q 2669 2469 2973 2155
Q 3278 1841 3278 1372
Q 3278 719 2808 319
Q 2338 -81 1556 -81
Q 869 -81 447 175
L 447 809
z
" transform="scale(0.015625)"/>
       </defs>
       <use xlink:href="#MicrosoftYaHei-33"/>
       <use xlink:href="#MicrosoftYaHei-30" transform="translate(58.642578 0)"/>
      </g>
     </g>
    </g>
    <g id="ytick_5">
     <g id="line2d_10">
      <g>
       <use xlink:href="#m6d447382d4" x="40.407813" y="96.650053" style="stroke: #000000; stroke-width: 0.8"/>
      </g>
     </g>
     <g id="text_11">
      <!-- 40 -->
      <g transform="translate(21.679688 100.646928) scale(0.1 -0.1)">
       <use xlink:href="#MicrosoftYaHei-34"/>
       <use xlink:href="#MicrosoftYaHei-30" transform="translate(58.642578 0)"/>
      </g>
     </g>
    </g>
    <g id="ytick_6">
     <g id="line2d_11">
      <g>
       <use xlink:href="#m6d447382d4" x="40.407813" y="51.234934" style="stroke: #000000; stroke-width: 0.8"/>
      </g>
     </g>
     <g id="text_12">
      <!-- 50 -->
      <g transform="translate(21.679688 55.231809) scale(0.1 -0.1)">
       <defs>
        <path id="MicrosoftYaHei-35" d="M 3294 1494
Q 3294 784 2823 350
Q 2353 -84 1559 -84
Q 878 -84 544 119
L 544 744
Q 1034 425 1544 425
Q 2050 425 2361 704
Q 2672 984 2672 1447
Q 2672 1909 2348 2167
Q 2025 2425 1434 2425
Q 978 2425 613 2384
L 791 4841
L 3053 4841
L 3053 4303
L 1306 4303
L 1206 2931
L 1647 2950
Q 2416 2950 2855 2567
Q 3294 2184 3294 1494
z
" transform="scale(0.015625)"/>
       </defs>
       <use xlink:href="#MicrosoftYaHei-35"/>
       <use xlink:href="#MicrosoftYaHei-30" transform="translate(58.642578 0)"/>
      </g>
     </g>
    </g>
    <g id="text_13">
     <!-- 接收风险（%） -->
     <g transform="translate(15.19375 187.855223) rotate(-90) scale(0.1 -0.1)">
      <defs>
       <path id="MicrosoftYaHei-63a5" d="M 1800 -366
Q 3019 -188 3784 222
Q 3200 484 2531 772
Q 2800 1119 3028 1466
L 2000 1466
L 2000 1884
L 3291 1884
Q 3491 2222 3656 2559
L 4119 2366
Q 3969 2116 3822 1884
L 6225 1884
L 6225 1466
L 5403 1466
Q 5156 778 4672 306
Q 5469 -25 6219 -353
L 5944 -816
Q 5241 -444 4288 -3
Q 3450 -572 2038 -841
Q 1950 -634 1800 -366
z
M 100 1966
Q 544 2088 963 2213
L 963 3641
L 175 3641
L 175 4091
L 963 4091
L 963 5259
L 1425 5259
L 1425 4091
L 2144 4091
L 2144 3641
L 1425 3641
L 1425 2356
Q 1722 2450 2006 2547
Q 2013 2266 2044 2059
Q 1722 1956 1425 1856
L 1425 -72
Q 1425 -747 819 -753
Q 588 -759 231 -747
Q 206 -491 156 -228
Q 531 -266 688 -266
Q 963 -266 963 66
L 963 1703
Q 534 1559 163 1428
L 100 1966
z
M 2019 3072
L 4453 3072
Q 4850 3622 5156 4103
L 5625 3847
Q 5300 3456 4966 3072
L 6269 3072
L 6269 2653
L 2019 2653
L 2019 3072
z
M 2263 4591
L 4028 4591
Q 3881 4875 3719 5153
L 4138 5347
Q 4338 5009 4519 4666
L 4359 4591
L 6119 4591
L 6119 4172
L 2263 4172
L 2263 4591
z
M 3181 909
Q 3703 703 4203 497
Q 4694 894 4900 1466
L 3553 1466
Q 3363 1175 3181 909
z
M 2825 3853
L 3188 4097
Q 3481 3753 3756 3372
L 3356 3103
Q 3119 3491 2825 3853
z
" transform="scale(0.015625)"/>
       <path id="MicrosoftYaHei-6536" d="M 2244 2659
Q 3044 4047 3400 5341
L 3906 5197
Q 3706 4619 3488 4091
L 6213 4091
L 6213 3628
L 5478 3628
Q 5384 1819 4550 681
Q 5184 119 6350 -297
Q 6156 -541 5994 -797
Q 4881 -322 4219 300
Q 3616 -294 2550 -853
Q 2419 -647 2231 -434
Q 3297 100 3878 672
Q 3156 1575 2944 2916
Q 2769 2575 2581 2259
Q 2463 2441 2244 2659
z
M 1681 5291
L 2156 5291
L 2156 -816
L 1681 -816
L 1681 1113
Q 1300 900 906 641
Q 744 522 588 359
L 231 778
Q 425 984 425 1316
L 425 4416
L 900 4416
L 900 1216
Q 1272 1413 1681 1634
L 1681 5291
z
M 4984 3628
L 3322 3628
Q 3413 2103 4203 1059
Q 4916 2063 4984 3628
z
" transform="scale(0.015625)"/>
       <path id="MicrosoftYaHei-98ce" d="M 1206 4466
L 1206 2709
Q 1206 1297 1056 572
Q 900 -178 450 -853
Q 200 -559 75 -422
Q 425 141 569 816
Q 700 1447 700 2684
L 700 4928
L 5325 4928
L 5325 1516
Q 5325 391 5469 -53
Q 5531 -197 5625 -197
Q 5725 -197 5756 22
Q 5806 353 5844 1078
Q 6131 966 6319 909
Q 6256 253 6188 -147
Q 6075 -766 5606 -766
Q 5256 -766 5025 -297
Q 4819 134 4819 1503
L 4819 4466
L 1206 4466
z
M 1594 3734
L 1981 4022
Q 2497 3313 3038 2534
Q 3513 3309 3938 4147
L 4363 3941
Q 3897 2991 3344 2097
Q 3956 1206 4600 234
L 4163 -66
Q 3584 834 3050 1634
Q 2438 703 1731 -166
Q 1575 -28 1325 141
Q 2084 1053 2750 2078
Q 2141 2975 1594 3734
z
" transform="scale(0.015625)"/>
       <path id="MicrosoftYaHei-9669" d="M 2094 1572
Q 2288 372 1544 228
Q 1338 184 969 222
Q 919 447 850 672
L 850 -822
L 400 -822
L 400 4972
L 2156 4972
L 2156 4534
Q 1806 3403 1600 2797
Q 2000 2216 2094 1572
z
M 2013 -128
L 4556 -128
Q 5069 1228 5369 2216
L 5888 2034
Q 5656 1372 5088 -128
L 6144 -128
L 6144 -591
L 2013 -591
L 2013 -128
z
M 4463 5278
L 4381 5091
Q 5113 3859 6319 3203
Q 6113 2953 5975 2766
Q 4831 3547 4138 4647
Q 3438 3572 2250 2709
Q 2131 2872 1925 3103
Q 3288 4009 3956 5278
L 4463 5278
z
M 1363 678
Q 1794 722 1638 1591
Q 1550 2078 1113 2728
Q 1388 3566 1663 4541
L 850 4541
L 850 722
Q 1125 653 1363 678
z
M 2663 3003
L 5538 3003
L 5538 2553
L 2663 2553
L 2663 3003
z
M 2381 1934
L 2806 2097
Q 3131 1253 3400 347
L 2913 191
Q 2681 1122 2381 1934
z
M 3619 2166
L 4063 2303
Q 4356 1409 4531 666
L 4031 534
Q 3875 1391 3619 2166
z
" transform="scale(0.015625)"/>
      </defs>
      <use xlink:href="#MicrosoftYaHei-63a5"/>
      <use xlink:href="#MicrosoftYaHei-6536" transform="translate(100 0)"/>
      <use xlink:href="#MicrosoftYaHei-98ce" transform="translate(200 0)"/>
      <use xlink:href="#MicrosoftYaHei-9669" transform="translate(300 0)"/>
      <use xlink:href="#MicrosoftYaHei-ff08" transform="translate(400 0)"/>
      <use xlink:href="#MicrosoftYaHei-25" transform="translate(500 0)"/>
      <use xlink:href="#MicrosoftYaHei-ff09" transform="translate(588.964844 0)"/>
     </g>
    </g>
   </g>
   <g id="line2d_12">
    <path d="M 175.600256 189.514437
L 175.600256 189.514437
L 175.600256 189.514437
L 175.600256 189.514437
L 217.8957 162.787131
L 253.719385 143.190946
L 288.588107 128.262855
L 327.043091 113.790371
L 365.507235 100.581824
L 384.743888 94.01222
L 403.98054 86.62899
" clip-path="url(#p195508abac)" style="fill: none; stroke: #1f77b4; stroke-width: 1.5; stroke-linecap: square"/>
    <defs>
     <path id="m0a2bc25930" d="M 0 1.5
C 0.397805 1.5 0.77937 1.341951 1.06066 1.06066
C 1.341951 0.77937 1.5 0.397805 1.5 0
C 1.5 -0.397805 1.341951 -0.77937 1.06066 -1.06066
C 0.77937 -1.341951 0.397805 -1.5 0 -1.5
C -0.397805 -1.5 -0.77937 -1.341951 -1.06066 -1.06066
C -1.341951 -0.77937 -1.5 -0.397805 -1.5 0
C -1.5 0.397805 -1.341951 0.77937 -1.06066 1.06066
C -0.77937 1.341951 -0.397805 1.5 0 1.5
z
" style="stroke: #1f77b4"/>
    </defs>
    <g clip-path="url(#p195508abac)">
     <use xlink:href="#m0a2bc25930" x="175.600256" y="189.514437" style="fill: #1f77b4; stroke: #1f77b4"/>
     <use xlink:href="#m0a2bc25930" x="175.600256" y="189.514437" style="fill: #1f77b4; stroke: #1f77b4"/>
     <use xlink:href="#m0a2bc25930" x="175.600256" y="189.514437" style="fill: #1f77b4; stroke: #1f77b4"/>
     <use xlink:href="#m0a2bc25930" x="175.600256" y="189.514437" style="fill: #1f77b4; stroke: #1f77b4"/>
     <use xlink:href="#m0a2bc25930" x="217.8957" y="162.787131" style="fill: #1f77b4; stroke: #1f77b4"/>
     <use xlink:href="#m0a2bc25930" x="253.719385" y="143.190946" style="fill: #1f77b4; stroke: #1f77b4"/>
     <use xlink:href="#m0a2bc25930" x="288.588107" y="128.262855" style="fill: #1f77b4; stroke: #1f77b4"/>
     <use xlink:href="#m0a2bc25930" x="327.043091" y="113.790371" style="fill: #1f77b4; stroke: #1f77b4"/>
     <use xlink:href="#m0a2bc25930" x="365.507235" y="100.581824" style="fill: #1f77b4; stroke: #1f77b4"/>
     <use xlink:href="#m0a2bc25930" x="384.743888" y="94.01222" style="fill: #1f77b4; stroke: #1f77b4"/>
     <use xlink:href="#m0a2bc25930" x="403.98054" y="86.62899" style="fill: #1f77b4; stroke: #1f77b4"/>
    </g>
   </g>
   <g id="line2d_13">
    <path d="M 57.7208 271.579356
L 96.194104 240.356463
L 134.667408 198.293413
L 173.140713 168.145073
L 211.614017 145.282075
L 250.087322 124.178463
L 288.560626 103.578175
L 327.033931 81.687393
L 365.507235 64.70328
L 384.743888 57.293129
L 403.98054 50.410434
" clip-path="url(#p195508abac)" style="fill: none; stroke: #ff7f0e; stroke-width: 1.5; stroke-linecap: square"/>
    <defs>
     <path id="m775bb933c4" d="M 0 1.5
C 0.397805 1.5 0.77937 1.341951 1.06066 1.06066
C 1.341951 0.77937 1.5 0.397805 1.5 0
C 1.5 -0.397805 1.341951 -0.77937 1.06066 -1.06066
C 0.77937 -1.341951 0.397805 -1.5 0 -1.5
C -0.397805 -1.5 -0.77937 -1.341951 -1.06066 -1.06066
C -1.341951 -0.77937 -1.5 -0.397805 -1.5 0
C -1.5 0.397805 -1.341951 0.77937 -1.06066 1.06066
C -0.77937 1.341951 -0.397805 1.5 0 1.5
z
" style="stroke: #ff7f0e"/>
    </defs>
    <g clip-path="url(#p195508abac)">
     <use xlink:href="#m775bb933c4" x="57.7208" y="271.579356" style="fill: #ff7f0e; stroke: #ff7f0e"/>
     <use xlink:href="#m775bb933c4" x="96.194104" y="240.356463" style="fill: #ff7f0e; stroke: #ff7f0e"/>
     <use xlink:href="#m775bb933c4" x="134.667408" y="198.293413" style="fill: #ff7f0e; stroke: #ff7f0e"/>
     <use xlink:href="#m775bb933c4" x="173.140713" y="168.145073" style="fill: #ff7f0e; stroke: #ff7f0e"/>
     <use xlink:href="#m775bb933c4" x="211.614017" y="145.282075" style="fill: #ff7f0e; stroke: #ff7f0e"/>
     <use xlink:href="#m775bb933c4" x="250.087322" y="124.178463" style="fill: #ff7f0e; stroke: #ff7f0e"/>
     <use xlink:href="#m775bb933c4" x="288.560626" y="103.578175" style="fill: #ff7f0e; stroke: #ff7f0e"/>
     <use xlink:href="#m775bb933c4" x="327.033931" y="81.687393" style="fill: #ff7f0e; stroke: #ff7f0e"/>
     <use xlink:href="#m775bb933c4" x="365.507235" y="64.70328" style="fill: #ff7f0e; stroke: #ff7f0e"/>
     <use xlink:href="#m775bb933c4" x="384.743888" y="57.293129" style="fill: #ff7f0e; stroke: #ff7f0e"/>
     <use xlink:href="#m775bb933c4" x="403.98054" y="50.410434" style="fill: #ff7f0e; stroke: #ff7f0e"/>
    </g>
   </g>
   <g id="line2d_14">
    <path d="M 57.7208 256.927574
L 96.194104 221.866022
L 134.669699 196.285601
L 173.140713 176.795572
L 211.614017 158.744414
L 250.087322 140.240456
L 288.560626 118.334227
L 327.033931 93.220265
L 365.507235 71.674741
L 384.743888 63.507829
L 403.98054 57.406524
" clip-path="url(#p195508abac)" style="fill: none; stroke: #2ca02c; stroke-width: 1.5; stroke-linecap: square"/>
    <defs>
     <path id="m7b3faa37e8" d="M 0 1.5
C 0.397805 1.5 0.77937 1.341951 1.06066 1.06066
C 1.341951 0.77937 1.5 0.397805 1.5 0
C 1.5 -0.397805 1.341951 -0.77937 1.06066 -1.06066
C 0.77937 -1.341951 0.397805 -1.5 0 -1.5
C -0.397805 -1.5 -0.77937 -1.341951 -1.06066 -1.06066
C -1.341951 -0.77937 -1.5 -0.397805 -1.5 0
C -1.5 0.397805 -1.341951 0.77937 -1.06066 1.06066
C -0.77937 1.341951 -0.397805 1.5 0 1.5
z
" style="stroke: #2ca02c"/>
    </defs>
    <g clip-path="url(#p195508abac)">
     <use xlink:href="#m7b3faa37e8" x="57.7208" y="256.927574" style="fill: #2ca02c; stroke: #2ca02c"/>
     <use xlink:href="#m7b3faa37e8" x="96.194104" y="221.866022" style="fill: #2ca02c; stroke: #2ca02c"/>
     <use xlink:href="#m7b3faa37e8" x="134.669699" y="196.285601" style="fill: #2ca02c; stroke: #2ca02c"/>
     <use xlink:href="#m7b3faa37e8" x="173.140713" y="176.795572" style="fill: #2ca02c; stroke: #2ca02c"/>
     <use xlink:href="#m7b3faa37e8" x="211.614017" y="158.744414" style="fill: #2ca02c; stroke: #2ca02c"/>
     <use xlink:href="#m7b3faa37e8" x="250.087322" y="140.240456" style="fill: #2ca02c; stroke: #2ca02c"/>
     <use xlink:href="#m7b3faa37e8" x="288.560626" y="118.334227" style="fill: #2ca02c; stroke: #2ca02c"/>
     <use xlink:href="#m7b3faa37e8" x="327.033931" y="93.220265" style="fill: #2ca02c; stroke: #2ca02c"/>
     <use xlink:href="#m7b3faa37e8" x="365.507235" y="71.674741" style="fill: #2ca02c; stroke: #2ca02c"/>
     <use xlink:href="#m7b3faa37e8" x="384.743888" y="63.507829" style="fill: #2ca02c; stroke: #2ca02c"/>
     <use xlink:href="#m7b3faa37e8" x="403.98054" y="57.406524" style="fill: #2ca02c; stroke: #2ca02c"/>
    </g>
   </g>
   <g id="line2d_15">
    <path d="M 57.7208 269.849257
L 96.194104 227.840272
L 134.667408 183.767783
L 173.140713 149.181558
L 211.614017 123.044887
L 250.087322 98.582898
L 288.560626 77.846803
L 327.033931 59.993564
L 365.507235 45.537019
L 384.743888 39.889691
L 403.98054 34.666526
" clip-path="url(#p195508abac)" style="fill: none; stroke: #d62728; stroke-width: 1.5; stroke-linecap: square"/>
    <defs>
     <path id="mb88ca8ca68" d="M 0 1.5
C 0.397805 1.5 0.77937 1.341951 1.06066 1.06066
C 1.341951 0.77937 1.5 0.397805 1.5 0
C 1.5 -0.397805 1.341951 -0.77937 1.06066 -1.06066
C 0.77937 -1.341951 0.397805 -1.5 0 -1.5
C -0.397805 -1.5 -0.77937 -1.341951 -1.06066 -1.06066
C -1.341951 -0.77937 -1.5 -0.397805 -1.5 0
C -1.5 0.397805 -1.341951 0.77937 -1.06066 1.06066
C -0.77937 1.341951 -0.397805 1.5 0 1.5
z
" style="stroke: #d62728"/>
    </defs>
    <g clip-path="url(#p195508abac)">
     <use xlink:href="#mb88ca8ca68" x="57.7208" y="269.849257" style="fill: #d62728; stroke: #d62728"/>
     <use xlink:href="#mb88ca8ca68" x="96.194104" y="227.840272" style="fill: #d62728; stroke: #d62728"/>
     <use xlink:href="#mb88ca8ca68" x="134.667408" y="183.767783" style="fill: #d62728; stroke: #d62728"/>
     <use xlink:href="#mb88ca8ca68" x="173.140713" y="149.181558" style="fill: #d62728; stroke: #d62728"/>
     <use xlink:href="#mb88ca8ca68" x="211.614017" y="123.044887" style="fill: #d62728; stroke: #d62728"/>
     <use xlink:href="#mb88ca8ca68" x="250.087322" y="98.582898" style="fill: #d62728; stroke: #d62728"/>
     <use xlink:href="#mb88ca8ca68" x="288.560626" y="77.846803" style="fill: #d62728; stroke: #d62728"/>
     <use xlink:href="#mb88ca8ca68" x="327.033931" y="59.993564" style="fill: #d62728; stroke: #d62728"/>
     <use xlink:href="#mb88ca8ca68" x="365.507235" y="45.537019" style="fill: #d62728; stroke: #d62728"/>
     <use xlink:href="#mb88ca8ca68" x="384.743888" y="39.889691" style="fill: #d62728; stroke: #d62728"/>
     <use xlink:href="#mb88ca8ca68" x="403.98054" y="34.666526" style="fill: #d62728; stroke: #d62728"/>
    </g>
   </g>
   <g id="line2d_16">
    <path d="M 57.7208 272.147045
L 96.194104 234.192982
L 134.667408 187.723584
L 173.140713 152.763405
L 211.614017 125.969837
L 250.087322 102.151229
L 288.560626 78.920392
L 327.033931 60.780895
L 365.507235 48.069092
L 384.743888 42.997042
L 403.98054 38.524108
" clip-path="url(#p195508abac)" style="fill: none; stroke: #9467bd; stroke-width: 1.5; stroke-linecap: square"/>
    <defs>
     <path id="m770fa051e7" d="M 0 1.5
C 0.397805 1.5 0.77937 1.341951 1.06066 1.06066
C 1.341951 0.77937 1.5 0.397805 1.5 0
C 1.5 -0.397805 1.341951 -0.77937 1.06066 -1.06066
C 0.77937 -1.341951 0.397805 -1.5 0 -1.5
C -0.397805 -1.5 -0.77937 -1.341951 -1.06066 -1.06066
C -1.341951 -0.77937 -1.5 -0.397805 -1.5 0
C -1.5 0.397805 -1.341951 0.77937 -1.06066 1.06066
C -0.77937 1.341951 -0.397805 1.5 0 1.5
z
" style="stroke: #9467bd"/>
    </defs>
    <g clip-path="url(#p195508abac)">
     <use xlink:href="#m770fa051e7" x="57.7208" y="272.147045" style="fill: #9467bd; stroke: #9467bd"/>
     <use xlink:href="#m770fa051e7" x="96.194104" y="234.192982" style="fill: #9467bd; stroke: #9467bd"/>
     <use xlink:href="#m770fa051e7" x="134.667408" y="187.723584" style="fill: #9467bd; stroke: #9467bd"/>
     <use xlink:href="#m770fa051e7" x="173.140713" y="152.763405" style="fill: #9467bd; stroke: #9467bd"/>
     <use xlink:href="#m770fa051e7" x="211.614017" y="125.969837" style="fill: #9467bd; stroke: #9467bd"/>
     <use xlink:href="#m770fa051e7" x="250.087322" y="102.151229" style="fill: #9467bd; stroke: #9467bd"/>
     <use xlink:href="#m770fa051e7" x="288.560626" y="78.920392" style="fill: #9467bd; stroke: #9467bd"/>
     <use xlink:href="#m770fa051e7" x="327.033931" y="60.780895" style="fill: #9467bd; stroke: #9467bd"/>
     <use xlink:href="#m770fa051e7" x="365.507235" y="48.069092" style="fill: #9467bd; stroke: #9467bd"/>
     <use xlink:href="#m770fa051e7" x="384.743888" y="42.997042" style="fill: #9467bd; stroke: #9467bd"/>
     <use xlink:href="#m770fa051e7" x="403.98054" y="38.524108" style="fill: #9467bd; stroke: #9467bd"/>
    </g>
   </g>
   <g id="line2d_17">
    <path d="M 57.72309 252.333543
L 96.194104 232.990022
L 134.667408 213.359698
L 173.140713 190.981038
L 211.614017 170.033315
L 250.087322 149.972267
L 288.560626 132.572793
L 327.033931 117.516002
L 365.507235 103.948911
L 384.743888 96.550458
L 403.98054 88.315838
" clip-path="url(#p195508abac)" style="fill: none; stroke: #8c564b; stroke-width: 1.5; stroke-linecap: square"/>
    <defs>
     <path id="m60d13fad78" d="M 0 1.5
C 0.397805 1.5 0.77937 1.341951 1.06066 1.06066
C 1.341951 0.77937 1.5 0.397805 1.5 0
C 1.5 -0.397805 1.341951 -0.77937 1.06066 -1.06066
C 0.77937 -1.341951 0.397805 -1.5 0 -1.5
C -0.397805 -1.5 -0.77937 -1.341951 -1.06066 -1.06066
C -1.341951 -0.77937 -1.5 -0.397805 -1.5 0
C -1.5 0.397805 -1.341951 0.77937 -1.06066 1.06066
C -0.77937 1.341951 -0.397805 1.5 0 1.5
z
" style="stroke: #8c564b"/>
    </defs>
    <g clip-path="url(#p195508abac)">
     <use xlink:href="#m60d13fad78" x="57.72309" y="252.333543" style="fill: #8c564b; stroke: #8c564b"/>
     <use xlink:href="#m60d13fad78" x="96.194104" y="232.990022" style="fill: #8c564b; stroke: #8c564b"/>
     <use xlink:href="#m60d13fad78" x="134.667408" y="213.359698" style="fill: #8c564b; stroke: #8c564b"/>
     <use xlink:href="#m60d13fad78" x="173.140713" y="190.981038" style="fill: #8c564b; stroke: #8c564b"/>
     <use xlink:href="#m60d13fad78" x="211.614017" y="170.033315" style="fill: #8c564b; stroke: #8c564b"/>
     <use xlink:href="#m60d13fad78" x="250.087322" y="149.972267" style="fill: #8c564b; stroke: #8c564b"/>
     <use xlink:href="#m60d13fad78" x="288.560626" y="132.572793" style="fill: #8c564b; stroke: #8c564b"/>
     <use xlink:href="#m60d13fad78" x="327.033931" y="117.516002" style="fill: #8c564b; stroke: #8c564b"/>
     <use xlink:href="#m60d13fad78" x="365.507235" y="103.948911" style="fill: #8c564b; stroke: #8c564b"/>
     <use xlink:href="#m60d13fad78" x="384.743888" y="96.550458" style="fill: #8c564b; stroke: #8c564b"/>
     <use xlink:href="#m60d13fad78" x="403.98054" y="88.315838" style="fill: #8c564b; stroke: #8c564b"/>
    </g>
   </g>
   <g id="line2d_18">
    <path d="M 57.7208 85.296273
L 96.194104 97.650267
L 134.667408 103.984955
L 173.140713 104.66528
L 211.614017 101.651122
L 250.087322 97.58719
L 288.560626 91.799594
L 327.033931 83.887188
L 365.507235 73.930479
L 384.743888 67.289577
L 403.98054 59.758379
" clip-path="url(#p195508abac)" style="fill: none; stroke: #e377c2; stroke-width: 1.5; stroke-linecap: square"/>
    <defs>
     <path id="m67ff29e25e" d="M 0 1.5
C 0.397805 1.5 0.77937 1.341951 1.06066 1.06066
C 1.341951 0.77937 1.5 0.397805 1.5 0
C 1.5 -0.397805 1.341951 -0.77937 1.06066 -1.06066
C 0.77937 -1.341951 0.397805 -1.5 0 -1.5
C -0.397805 -1.5 -0.77937 -1.341951 -1.06066 -1.06066
C -1.341951 -0.77937 -1.5 -0.397805 -1.5 0
C -1.5 0.397805 -1.341951 0.77937 -1.06066 1.06066
C -0.77937 1.341951 -0.397805 1.5 0 1.5
z
" style="stroke: #e377c2"/>
    </defs>
    <g clip-path="url(#p195508abac)">
     <use xlink:href="#m67ff29e25e" x="57.7208" y="85.296273" style="fill: #e377c2; stroke: #e377c2"/>
     <use xlink:href="#m67ff29e25e" x="96.194104" y="97.650267" style="fill: #e377c2; stroke: #e377c2"/>
     <use xlink:href="#m67ff29e25e" x="134.667408" y="103.984955" style="fill: #e377c2; stroke: #e377c2"/>
     <use xlink:href="#m67ff29e25e" x="173.140713" y="104.66528" style="fill: #e377c2; stroke: #e377c2"/>
     <use xlink:href="#m67ff29e25e" x="211.614017" y="101.651122" style="fill: #e377c2; stroke: #e377c2"/>
     <use xlink:href="#m67ff29e25e" x="250.087322" y="97.58719" style="fill: #e377c2; stroke: #e377c2"/>
     <use xlink:href="#m67ff29e25e" x="288.560626" y="91.799594" style="fill: #e377c2; stroke: #e377c2"/>
     <use xlink:href="#m67ff29e25e" x="327.033931" y="83.887188" style="fill: #e377c2; stroke: #e377c2"/>
     <use xlink:href="#m67ff29e25e" x="365.507235" y="73.930479" style="fill: #e377c2; stroke: #e377c2"/>
     <use xlink:href="#m67ff29e25e" x="384.743888" y="67.289577" style="fill: #e377c2; stroke: #e377c2"/>
     <use xlink:href="#m67ff29e25e" x="403.98054" y="59.758379" style="fill: #e377c2; stroke: #e377c2"/>
    </g>
   </g>
   <g id="patch_3">
    <path d="M 40.407813 284.021071
L 40.407813 22.7925
" style="fill: none; stroke: #000000; stroke-width: 0.8; stroke-linejoin: miter; stroke-linecap: square"/>
   </g>
   <g id="patch_4">
    <path d="M 40.407813 284.021071
L 421.293527 284.021071
" style="fill: none; stroke: #000000; stroke-width: 0.8; stroke-linejoin: miter; stroke-linecap: square"/>
   </g>
   <g id="text_14">
    <!-- 低仰角LEO：置信度选择诊断点 -->
    <g transform="translate(147.582857 16.7925) scale(0.12 -0.12)">
     <defs>
      <path id="MicrosoftYaHei-4f4e" d="M 2275 4809
Q 4069 4809 5994 5072
L 6169 4603
Q 5306 4522 4497 4469
Q 4513 3594 4556 2872
L 6250 2872
L 6250 2422
L 4591 2422
Q 4775 250 5581 -172
Q 5756 -247 5806 -41
Q 5863 278 5913 897
Q 6156 784 6363 728
Q 6300 141 6225 -241
Q 6119 -728 5738 -728
Q 5275 -728 4856 -178
Q 4259 644 4122 2422
L 2750 2422
L 2750 209
Q 3425 597 3913 878
Q 3950 591 4006 397
Q 3206 -59 2744 -353
Q 2563 -472 2388 -634
L 2063 -222
Q 2275 -41 2275 316
L 2275 4809
z
M 38 2397
Q 1000 3697 1531 5334
L 1988 5172
Q 1678 4309 1306 3578
L 1306 -828
L 856 -828
L 856 2778
Q 550 2288 213 1872
Q 138 2122 38 2397
z
M 4016 4441
Q 3366 4403 2750 4384
L 2750 2872
L 4094 2872
Q 4059 3481 4016 4441
z
M 3531 -116
L 3856 141
Q 4206 -191 4544 -566
L 4181 -859
Q 3888 -491 3531 -116
z
" transform="scale(0.015625)"/>
      <path id="MicrosoftYaHei-4ef0" d="M 3975 4597
L 5925 4597
L 5925 1053
Q 5925 216 5238 203
Q 5038 197 4563 209
Q 4544 466 4488 703
Q 4850 653 5069 653
Q 5475 653 5475 1147
L 5475 4159
L 4431 4159
L 4431 -834
L 3975 -834
L 3975 4597
z
M 88 2253
Q 906 3716 1288 5328
L 1750 5234
Q 1566 4481 1319 3803
L 1319 -822
L 869 -822
L 869 2744
Q 606 2206 294 1728
Q 188 2041 88 2253
z
M 3731 1222
Q 3731 966 3756 734
Q 3088 422 2531 103
Q 2381 9 2263 -97
L 1969 309
Q 2169 484 2169 847
L 2169 4759
Q 2900 4834 3744 5109
L 4013 4684
Q 3331 4497 2631 4366
L 2631 666
Q 3244 959 3731 1222
z
" transform="scale(0.015625)"/>
      <path id="MicrosoftYaHei-89d2" d="M 94 3266
Q 1263 4153 1981 5384
L 2488 5247
Q 2344 5013 2188 4791
L 4694 4791
L 4694 4347
Q 4406 4034 4094 3691
L 5794 3691
L 5794 28
Q 5794 -741 5075 -741
Q 4675 -741 4169 -728
Q 4131 -497 4081 -216
Q 4525 -247 4888 -247
Q 5300 -247 5300 122
L 5300 741
L 3556 741
L 3556 -703
L 3063 -703
L 3063 741
L 1303 741
Q 1119 -325 594 -897
Q 413 -684 219 -478
Q 913 228 913 2009
L 913 3319
Q 700 3122 475 2934
Q 306 3091 94 3266
z
M 4063 4353
L 1863 4353
Q 1594 4009 1288 3691
L 3494 3691
Q 3806 4050 4063 4353
z
M 5300 3241
L 3556 3241
L 3556 2428
L 5300 2428
L 5300 3241
z
M 3556 1178
L 5300 1178
L 5300 1991
L 3556 1991
L 3556 1178
z
M 1366 1178
L 3063 1178
L 3063 1991
L 1406 1991
Q 1403 1556 1366 1178
z
M 1406 3241
L 1406 2428
L 3063 2428
L 3063 3241
L 1406 3241
z
" transform="scale(0.015625)"/>
      <path id="MicrosoftYaHei-4c" d="M 3178 0
L 625 0
L 625 4841
L 1250 4841
L 1250 553
L 3178 553
L 3178 0
z
" transform="scale(0.015625)"/>
      <path id="MicrosoftYaHei-45" d="M 3228 0
L 625 0
L 625 4841
L 3119 4841
L 3119 4284
L 1250 4284
L 1250 2734
L 2981 2734
L 2981 2181
L 1250 2181
L 1250 553
L 3228 553
L 3228 0
z
" transform="scale(0.015625)"/>
      <path id="MicrosoftYaHei-4f" d="M 313 2363
Q 313 3534 947 4228
Q 1581 4922 2666 4922
Q 3675 4922 4290 4244
Q 4906 3566 4906 2478
Q 4906 1300 4275 609
Q 3644 -81 2588 -81
Q 1556 -81 934 597
Q 313 1275 313 2363
z
M 969 2413
Q 969 1534 1417 1004
Q 1866 475 2588 475
Q 3363 475 3805 983
Q 4247 1491 4247 2403
Q 4247 3341 3814 3850
Q 3381 4359 2628 4359
Q 1888 4359 1428 3821
Q 969 3284 969 2413
z
" transform="scale(0.015625)"/>
      <path id="MicrosoftYaHei-ff1a" d="M 1606 3531
Q 1772 3531 1890 3415
Q 2009 3300 2009 3138
Q 2009 2975 1893 2858
Q 1778 2741 1606 2741
Q 1434 2741 1318 2858
Q 1203 2975 1203 3138
Q 1203 3300 1322 3415
Q 1441 3531 1606 3531
z
M 1606 716
Q 1772 716 1890 600
Q 2009 484 2009 319
Q 2009 150 1890 36
Q 1772 -78 1606 -78
Q 1441 -78 1322 36
Q 1203 150 1203 319
Q 1203 484 1322 600
Q 1441 716 1606 716
z
" transform="scale(0.015625)"/>
      <path id="MicrosoftYaHei-9009" d="M 1756 2753
L 3825 2753
L 3825 3797
L 2772 3797
Q 2584 3322 2381 2947
Q 2219 3053 1944 3172
Q 2431 4028 2669 5072
L 3156 4966
Q 3047 4575 2928 4228
L 3825 4228
L 3825 5316
L 4313 5316
L 4313 4228
L 5944 4228
L 5944 3797
L 4313 3797
L 4313 2753
L 6244 2753
L 6244 2322
L 4769 2322
L 4769 984
Q 4769 653 5044 653
L 5344 653
Q 5631 653 5675 953
Q 5713 1197 5744 1691
Q 5938 1603 6219 1509
Q 6169 1078 6113 784
Q 6013 228 5400 228
L 4938 228
Q 4288 228 4288 934
L 4288 2322
L 3447 2322
Q 3444 2038 3431 1816
Q 3394 647 2119 84
Q 1994 266 1806 503
Q 2906 959 2950 1816
Q 2963 2003 2972 2322
L 1756 2322
L 1756 2753
z
M 2694 -197
L 4000 -209
L 6300 -166
Q 6231 -372 6125 -659
L 3947 -684
L 2638 -666
Q 1513 -628 1081 91
Q 825 -147 331 -747
L 75 -228
Q 628 306 875 538
L 875 2641
L 131 2641
L 131 3103
L 1356 3103
L 1356 431
Q 1741 -184 2694 -197
z
M 856 5203
Q 1175 4816 1731 4022
L 1288 3709
Q 781 4503 456 4934
L 856 5203
z
" transform="scale(0.015625)"/>
      <path id="MicrosoftYaHei-62e9" d="M 2325 4578
L 2325 5009
L 5894 5009
L 5894 4591
Q 5491 3856 4675 3309
Q 5366 3025 6319 2903
Q 6163 2622 6056 2409
Q 4963 2622 4200 3028
Q 3409 2613 2325 2334
Q 2250 2553 2113 2797
Q 3047 3013 3734 3316
Q 3013 3831 2688 4578
L 2325 4578
z
M 2006 728
L 3950 728
L 3950 1453
L 2388 1453
L 2388 1903
L 3950 1903
L 3950 2616
L 4425 2616
L 4425 1903
L 6025 1903
L 6025 1453
L 4425 1453
L 4425 728
L 6319 728
L 6319 278
L 4425 278
L 4425 -791
L 3950 -791
L 3950 278
L 2006 278
L 2006 728
z
M 88 1953
Q 544 2056 969 2159
L 969 3647
L 144 3647
L 144 4084
L 969 4084
L 969 5303
L 1438 5303
L 1438 4084
L 2238 4084
L 2238 3647
L 1438 3647
L 1438 2278
Q 1778 2366 2094 2453
Q 2106 2178 2138 1991
Q 1772 1894 1438 1800
L 1438 -66
Q 1438 -759 806 -759
Q 656 -759 219 -747
Q 194 -491 138 -241
Q 494 -291 694 -291
Q 969 -291 969 41
L 969 1672
Q 531 1550 150 1441
L 88 1953
z
M 5338 4578
L 3159 4578
Q 3497 3950 4197 3544
Q 4981 3984 5338 4578
z
" transform="scale(0.015625)"/>
      <path id="MicrosoftYaHei-8bca" d="M 2069 997
Q 2094 678 2138 447
Q 1569 16 1238 -259
Q 1106 -378 956 -547
L 600 -153
Q 794 53 794 422
L 794 2753
L 88 2753
L 88 3216
L 1281 3216
L 1281 353
Q 1656 653 2069 997
z
M 931 5172
Q 1419 4691 1919 4134
L 1481 3766
Q 969 4428 556 4853
L 931 5172
z
M 4325 5278
L 4238 5122
Q 4894 3872 6319 3222
Q 6113 2953 5981 2766
Q 4569 3591 3963 4691
Q 3400 3666 1925 2734
Q 1731 2991 1575 3172
Q 3144 3966 3750 5278
L 4325 5278
z
M 1963 -391
Q 4413 328 5619 1622
L 5988 1284
Q 4719 -78 2219 -872
Q 2094 -628 1963 -391
z
M 2163 2253
Q 3494 2803 4163 3597
L 4556 3303
Q 3794 2441 2438 1822
Q 2294 2053 2163 2253
z
M 2331 984
Q 3969 1653 4931 2616
L 5288 2284
Q 4275 1241 2594 541
Q 2500 709 2331 984
z
" transform="scale(0.015625)"/>
      <path id="MicrosoftYaHei-65ad" d="M 3713 4822
Q 5025 4872 6138 5091
L 6306 4628
Q 5206 4497 4169 4409
L 4169 3003
L 6319 3003
L 6319 2572
L 5531 2572
L 5531 -791
L 5075 -791
L 5075 2572
L 4169 2572
L 4169 1978
Q 4169 153 3306 -897
Q 3156 -716 2950 -509
Q 3713 372 3713 1997
L 3713 4822
z
M 831 1034
Q 1472 1750 1841 2678
L 950 2678
L 950 3097
L 2019 3097
L 2019 5216
L 2456 5216
L 2456 3097
L 3406 3097
L 3406 2678
L 2456 2678
L 2456 2141
L 2644 2297
Q 3019 1916 3450 1416
L 3106 1116
Q 2806 1506 2456 1903
L 2456 203
L 2019 203
L 2019 2191
Q 1675 1319 1025 547
Q 944 803 831 1034
z
M 375 5072
L 819 5072
L 819 66
L 2994 66
L 2994 -353
L 375 -353
L 375 5072
z
M 2550 3647
Q 2894 4209 3144 4816
L 3569 4616
Q 3300 4097 2925 3441
L 2550 3647
z
M 931 4634
L 1294 4803
Q 1569 4278 1850 3666
L 1444 3466
Q 1144 4197 931 4634
z
" transform="scale(0.015625)"/>
      <path id="MicrosoftYaHei-70b9" d="M 900 3378
L 2863 3378
L 2863 5341
L 3388 5341
L 3388 4591
L 6181 4591
L 6181 4141
L 3388 4141
L 3388 3378
L 5600 3378
L 5600 991
L 5088 991
L 5088 1253
L 1413 1253
L 1413 991
L 900 991
L 900 3378
z
M 5088 2928
L 1413 2928
L 1413 1703
L 5088 1703
L 5088 2928
z
M 5425 847
Q 5925 91 6225 -516
L 5750 -772
Q 5438 -134 4994 622
L 5425 847
z
M 1369 553
Q 894 -303 531 -791
L 100 -484
Q 506 53 931 803
L 1369 553
z
M 2413 828
Q 2700 197 2913 -503
L 2406 -678
Q 2213 3 1963 666
L 2413 828
z
M 3906 872
Q 4206 253 4450 -422
L 3956 -616
Q 3781 -53 3450 697
L 3906 872
z
" transform="scale(0.015625)"/>
     </defs>
     <use xlink:href="#MicrosoftYaHei-4f4e"/>
     <use xlink:href="#MicrosoftYaHei-4ef0" transform="translate(100 0)"/>
     <use xlink:href="#MicrosoftYaHei-89d2" transform="translate(200 0)"/>
     <use xlink:href="#MicrosoftYaHei-4c" transform="translate(300 0)"/>
     <use xlink:href="#MicrosoftYaHei-45" transform="translate(351.318359 0)"/>
     <use xlink:href="#MicrosoftYaHei-4f" transform="translate(406.298828 0)"/>
     <use xlink:href="#MicrosoftYaHei-ff1a" transform="translate(487.792969 0)"/>
     <use xlink:href="#MicrosoftYaHei-7f6e" transform="translate(587.792969 0)"/>
     <use xlink:href="#MicrosoftYaHei-4fe1" transform="translate(687.792969 0)"/>
     <use xlink:href="#MicrosoftYaHei-5ea6" transform="translate(787.792969 0)"/>
     <use xlink:href="#MicrosoftYaHei-9009" transform="translate(887.792969 0)"/>
     <use xlink:href="#MicrosoftYaHei-62e9" transform="translate(987.792969 0)"/>
     <use xlink:href="#MicrosoftYaHei-8bca" transform="translate(1087.792969 0)"/>
     <use xlink:href="#MicrosoftYaHei-65ad" transform="translate(1187.792969 0)"/>
     <use xlink:href="#MicrosoftYaHei-70b9" transform="translate(1287.792969 0)"/>
    </g>
   </g>
   <g id="legend_1">
    <g id="patch_5">
     <path d="M 46.007813 78.7275
L 165.634062 78.7275
Q 167.234062 78.7275 167.234062 77.1275
L 167.234062 28.3925
Q 167.234062 26.7925 165.634062 26.7925
L 46.007813 26.7925
Q 44.407813 26.7925 44.407813 28.3925
L 44.407813 77.1275
Q 44.407813 78.7275 46.007813 78.7275
z
" style="fill: #ffffff; opacity: 0.8; stroke: #cccccc; stroke-linejoin: miter"/>
    </g>
    <g id="line2d_19">
     <path d="M 47.607813 33.5875
L 55.607813 33.5875
L 63.607813 33.5875
" style="fill: none; stroke: #1f77b4; stroke-width: 1.5; stroke-linecap: square"/>
     <g>
      <use xlink:href="#m0a2bc25930" x="55.607813" y="33.5875" style="fill: #1f77b4; stroke: #1f77b4"/>
     </g>
    </g>
    <g id="text_15">
     <!-- H0 -->
     <g transform="translate(70.007812 36.3875) scale(0.08 -0.08)">
      <defs>
       <path id="MicrosoftYaHei-48" d="M 4325 0
L 3700 0
L 3700 2181
L 1250 2181
L 1250 0
L 625 0
L 625 4841
L 1250 4841
L 1250 2738
L 3700 2738
L 3700 4841
L 4325 4841
L 4325 0
z
" transform="scale(0.015625)"/>
      </defs>
      <use xlink:href="#MicrosoftYaHei-48"/>
      <use xlink:href="#MicrosoftYaHei-30" transform="translate(77.34375 0)"/>
     </g>
    </g>
    <g id="line2d_20">
     <path d="M 47.607813 45.97125
L 55.607813 45.97125
L 63.607813 45.97125
" style="fill: none; stroke: #ff7f0e; stroke-width: 1.5; stroke-linecap: square"/>
     <g>
      <use xlink:href="#m775bb933c4" x="55.607813" y="45.97125" style="fill: #ff7f0e; stroke: #ff7f0e"/>
     </g>
    </g>
    <g id="text_16">
     <!-- H1 -->
     <g transform="translate(70.007812 48.77125) scale(0.08 -0.08)">
      <use xlink:href="#MicrosoftYaHei-48"/>
      <use xlink:href="#MicrosoftYaHei-31" transform="translate(77.34375 0)"/>
     </g>
    </g>
    <g id="line2d_21">
     <path d="M 47.607813 58.355
L 55.607813 58.355
L 63.607813 58.355
" style="fill: none; stroke: #2ca02c; stroke-width: 1.5; stroke-linecap: square"/>
     <g>
      <use xlink:href="#m7b3faa37e8" x="55.607813" y="58.355" style="fill: #2ca02c; stroke: #2ca02c"/>
     </g>
    </g>
    <g id="text_17">
     <!-- H2 -->
     <g transform="translate(70.007812 61.155) scale(0.08 -0.08)">
      <use xlink:href="#MicrosoftYaHei-48"/>
      <use xlink:href="#MicrosoftYaHei-32" transform="translate(77.34375 0)"/>
     </g>
    </g>
    <g id="line2d_22">
     <path d="M 47.607813 70.73875
L 55.607813 70.73875
L 63.607813 70.73875
" style="fill: none; stroke: #d62728; stroke-width: 1.5; stroke-linecap: square"/>
     <g>
      <use xlink:href="#mb88ca8ca68" x="55.607813" y="70.73875" style="fill: #d62728; stroke: #d62728"/>
     </g>
    </g>
    <g id="text_18">
     <!-- H3 -->
     <g transform="translate(70.007812 73.53875) scale(0.08 -0.08)">
      <use xlink:href="#MicrosoftYaHei-48"/>
      <use xlink:href="#MicrosoftYaHei-33" transform="translate(77.34375 0)"/>
     </g>
    </g>
    <g id="line2d_23">
     <path d="M 96.886563 33.5875
L 104.886563 33.5875
L 112.886563 33.5875
" style="fill: none; stroke: #9467bd; stroke-width: 1.5; stroke-linecap: square"/>
     <g>
      <use xlink:href="#m770fa051e7" x="104.886563" y="33.5875" style="fill: #9467bd; stroke: #9467bd"/>
     </g>
    </g>
    <g id="text_19">
     <!-- H4 -->
     <g transform="translate(119.286563 36.3875) scale(0.08 -0.08)">
      <use xlink:href="#MicrosoftYaHei-48"/>
      <use xlink:href="#MicrosoftYaHei-34" transform="translate(77.34375 0)"/>
     </g>
    </g>
    <g id="line2d_24">
     <path d="M 96.886563 45.97125
L 104.886563 45.97125
L 112.886563 45.97125
" style="fill: none; stroke: #8c564b; stroke-width: 1.5; stroke-linecap: square"/>
     <g>
      <use xlink:href="#m60d13fad78" x="104.886563" y="45.97125" style="fill: #8c564b; stroke: #8c564b"/>
     </g>
    </g>
    <g id="text_20">
     <!-- cosine -->
     <g transform="translate(119.286563 48.77125) scale(0.08 -0.08)">
      <defs>
       <path id="MicrosoftYaHei-63" d="M 2934 156
Q 2538 -81 1978 -81
Q 1228 -81 772 400
Q 316 881 316 1647
Q 316 2497 808 3017
Q 1300 3538 2125 3538
Q 2600 3538 2938 3369
L 2938 2763
Q 2572 3031 2125 3031
Q 1600 3031 1270 2667
Q 941 2303 941 1697
Q 941 1100 1252 762
Q 1563 425 2091 425
Q 2538 425 2934 719
L 2934 156
z
" transform="scale(0.015625)"/>
       <path id="MicrosoftYaHei-6f" d="M 316 1691
Q 316 2547 794 3042
Q 1272 3538 2091 3538
Q 2869 3538 3311 3061
Q 3753 2584 3753 1744
Q 3753 925 3281 422
Q 2809 -81 2016 -81
Q 1241 -81 778 406
Q 316 894 316 1691
z
M 941 1709
Q 941 1113 1242 769
Q 1544 425 2053 425
Q 2578 425 2853 761
Q 3128 1097 3128 1725
Q 3128 2356 2853 2693
Q 2578 3031 2053 3031
Q 1538 3031 1239 2678
Q 941 2325 941 1709
z
" transform="scale(0.015625)"/>
       <path id="MicrosoftYaHei-73" d="M 353 747
Q 816 413 1350 413
Q 2066 413 2066 881
Q 2066 1081 1909 1211
Q 1753 1341 1275 1519
Q 700 1750 528 1976
Q 356 2203 356 2525
Q 356 2984 745 3261
Q 1134 3538 1703 3538
Q 2144 3538 2522 3384
L 2522 2794
Q 2134 3044 1644 3044
Q 1350 3044 1165 2916
Q 981 2788 981 2578
Q 981 2372 1114 2256
Q 1247 2141 1703 1959
Q 2281 1744 2484 1512
Q 2688 1281 2688 941
Q 2688 466 2298 192
Q 1909 -81 1291 -81
Q 753 -81 353 122
L 353 747
z
" transform="scale(0.015625)"/>
       <path id="MicrosoftYaHei-69" d="M 472 4675
Q 472 4838 583 4948
Q 694 5059 856 5059
Q 1022 5059 1136 4950
Q 1250 4841 1250 4675
Q 1250 4513 1136 4405
Q 1022 4297 856 4297
Q 691 4297 581 4405
Q 472 4513 472 4675
z
M 544 0
L 544 3456
L 1156 3456
L 1156 0
L 544 0
z
" transform="scale(0.015625)"/>
       <path id="MicrosoftYaHei-6e" d="M 3469 0
L 2859 0
L 2859 1966
Q 2859 3031 2081 3031
Q 1678 3031 1418 2731
Q 1159 2431 1159 1972
L 1159 0
L 547 0
L 547 3456
L 1159 3456
L 1159 2884
L 1172 2884
Q 1563 3538 2306 3538
Q 2875 3538 3172 3173
Q 3469 2809 3469 2113
L 3469 0
z
" transform="scale(0.015625)"/>
       <path id="MicrosoftYaHei-65" d="M 3363 1572
L 944 1572
Q 959 1019 1246 717
Q 1534 416 2050 416
Q 2631 416 3116 788
L 3116 241
Q 2659 -81 1906 -81
Q 1156 -81 736 394
Q 316 869 316 1713
Q 316 2506 777 3022
Q 1238 3538 1922 3538
Q 2600 3538 2981 3102
Q 3363 2666 3363 1881
L 3363 1572
z
M 2750 2063
Q 2747 2531 2528 2787
Q 2309 3044 1913 3044
Q 1547 3044 1280 2772
Q 1013 2500 944 2063
L 2750 2063
z
" transform="scale(0.015625)"/>
      </defs>
      <use xlink:href="#MicrosoftYaHei-63"/>
      <use xlink:href="#MicrosoftYaHei-6f" transform="translate(50.146484 0)"/>
      <use xlink:href="#MicrosoftYaHei-73" transform="translate(113.720703 0)"/>
      <use xlink:href="#MicrosoftYaHei-69" transform="translate(160.009766 0)"/>
      <use xlink:href="#MicrosoftYaHei-6e" transform="translate(186.621094 0)"/>
      <use xlink:href="#MicrosoftYaHei-65" transform="translate(248.242188 0)"/>
     </g>
    </g>
    <g id="line2d_25">
     <path d="M 96.886563 58.355
L 104.886563 58.355
L 112.886563 58.355
" style="fill: none; stroke: #e377c2; stroke-width: 1.5; stroke-linecap: square"/>
     <g>
      <use xlink:href="#m67ff29e25e" x="104.886563" y="58.355" style="fill: #e377c2; stroke: #e377c2"/>
     </g>
    </g>
    <g id="text_21">
     <!-- linear_ridge -->
     <g transform="translate(119.286563 61.155) scale(0.08 -0.08)">
      <defs>
       <path id="MicrosoftYaHei-6c" d="M 544 0
L 544 5116
L 1156 5116
L 1156 0
L 544 0
z
" transform="scale(0.015625)"/>
       <path id="MicrosoftYaHei-61" d="M 628 3216
Q 1144 3538 1819 3538
Q 3069 3538 3069 2225
L 3069 0
L 2463 0
L 2463 534
L 2447 534
Q 2088 -81 1388 -81
Q 884 -81 587 191
Q 291 463 291 925
Q 291 1894 1438 2053
L 2463 2197
Q 2463 3044 1763 3044
Q 1141 3044 628 2625
L 628 3216
z
M 1653 1625
Q 1228 1569 1067 1412
Q 906 1256 906 975
Q 906 728 1081 572
Q 1256 416 1544 416
Q 1944 416 2203 697
Q 2463 978 2463 1403
L 2463 1734
L 1653 1625
z
" transform="scale(0.015625)"/>
       <path id="MicrosoftYaHei-72" d="M 2400 2850
Q 2247 2959 1978 2959
Q 1622 2959 1390 2626
Q 1159 2294 1159 1750
L 1159 0
L 547 0
L 547 3456
L 1159 3456
L 1159 2753
L 1172 2753
Q 1434 3516 2078 3516
Q 2288 3516 2400 3469
L 2400 2850
z
" transform="scale(0.015625)"/>
       <path id="MicrosoftYaHei-5f" d="M 2869 -1634
L 0 -1634
L 0 -1231
L 2869 -1231
L 2869 -1634
z
" transform="scale(0.015625)"/>
       <path id="MicrosoftYaHei-64" d="M 3547 0
L 2934 0
L 2934 575
L 2922 575
Q 2544 -81 1747 -81
Q 1091 -81 703 386
Q 316 853 316 1647
Q 316 2503 753 3020
Q 1191 3538 1897 3538
Q 2603 3538 2922 2988
L 2934 2988
L 2934 5116
L 3547 5116
L 3547 0
z
M 2938 2056
Q 2938 2472 2664 2751
Q 2391 3031 1991 3031
Q 1503 3031 1222 2667
Q 941 2303 941 1675
Q 941 1097 1211 761
Q 1481 425 1931 425
Q 2375 425 2656 754
Q 2938 1084 2938 1575
L 2938 2056
z
" transform="scale(0.015625)"/>
       <path id="MicrosoftYaHei-67" d="M 3547 291
Q 3547 -1628 1684 -1628
Q 1041 -1628 566 -1388
L 566 -797
Q 1144 -1119 1675 -1119
Q 2934 -1119 2934 206
L 2934 572
L 2922 572
Q 2528 -81 1747 -81
Q 1097 -81 706 384
Q 316 850 316 1619
Q 316 2503 747 3020
Q 1178 3538 1897 3538
Q 2588 3538 2922 2988
L 2934 2988
L 2934 3456
L 3547 3456
L 3547 291
z
M 2934 2056
Q 2938 2456 2666 2743
Q 2394 3031 1997 3031
Q 1497 3031 1219 2664
Q 941 2297 941 1656
Q 941 1106 1209 765
Q 1478 425 1922 425
Q 2369 425 2653 750
Q 2938 1075 2934 1575
L 2934 2056
z
" transform="scale(0.015625)"/>
      </defs>
      <use xlink:href="#MicrosoftYaHei-6c"/>
      <use xlink:href="#MicrosoftYaHei-69" transform="translate(26.611328 0)"/>
      <use xlink:href="#MicrosoftYaHei-6e" transform="translate(53.222656 0)"/>
      <use xlink:href="#MicrosoftYaHei-65" transform="translate(114.84375 0)"/>
      <use xlink:href="#MicrosoftYaHei-61" transform="translate(171.582031 0)"/>
      <use xlink:href="#MicrosoftYaHei-72" transform="translate(226.855469 0)"/>
      <use xlink:href="#MicrosoftYaHei-5f" transform="translate(265.039062 0)"/>
      <use xlink:href="#MicrosoftYaHei-72" transform="translate(309.863281 0)"/>
      <use xlink:href="#MicrosoftYaHei-69" transform="translate(348.046875 0)"/>
      <use xlink:href="#MicrosoftYaHei-64" transform="translate(374.658203 0)"/>
      <use xlink:href="#MicrosoftYaHei-67" transform="translate(438.623047 0)"/>
      <use xlink:href="#MicrosoftYaHei-65" transform="translate(502.587891 0)"/>
     </g>
    </g>
   </g>
  </g>
  <g id="axes_2">
   <g id="patch_6">
    <path d="M 468.229241 284.021071
L 849.114955 284.021071
L 849.114955 22.7925
L 468.229241 22.7925
z
" style="fill: #ffffff"/>
   </g>
   <g id="matplotlib.axis_3">
    <g id="xtick_6">
     <g id="line2d_26">
      <g>
       <use xlink:href="#m3077f8d131" x="485.542228" y="284.021071" style="stroke: #000000; stroke-width: 0.8"/>
      </g>
     </g>
     <g id="text_22">
      <!-- 0.0 -->
      <g transform="translate(478.474259 299.014821) scale(0.1 -0.1)">
       <defs>
        <path id="MicrosoftYaHei-2e" d="M 372 322
Q 372 491 487 606
Q 603 722 775 722
Q 950 722 1065 605
Q 1181 488 1181 322
Q 1181 159 1065 42
Q 950 -75 772 -75
Q 600 -75 486 42
Q 372 159 372 322
z
" transform="scale(0.015625)"/>
       </defs>
       <use xlink:href="#MicrosoftYaHei-30"/>
       <use xlink:href="#MicrosoftYaHei-2e" transform="translate(58.642578 0)"/>
       <use xlink:href="#MicrosoftYaHei-30" transform="translate(82.714844 0)"/>
      </g>
     </g>
    </g>
    <g id="xtick_7">
     <g id="line2d_27">
      <g>
       <use xlink:href="#m3077f8d131" x="554.794176" y="284.021071" style="stroke: #000000; stroke-width: 0.8"/>
      </g>
     </g>
     <g id="text_23">
      <!-- 0.2 -->
      <g transform="translate(547.726207 299.014821) scale(0.1 -0.1)">
       <use xlink:href="#MicrosoftYaHei-30"/>
       <use xlink:href="#MicrosoftYaHei-2e" transform="translate(58.642578 0)"/>
       <use xlink:href="#MicrosoftYaHei-32" transform="translate(82.714844 0)"/>
      </g>
     </g>
    </g>
    <g id="xtick_8">
     <g id="line2d_28">
      <g>
       <use xlink:href="#m3077f8d131" x="624.046124" y="284.021071" style="stroke: #000000; stroke-width: 0.8"/>
      </g>
     </g>
     <g id="text_24">
      <!-- 0.4 -->
      <g transform="translate(616.978155 299.014821) scale(0.1 -0.1)">
       <use xlink:href="#MicrosoftYaHei-30"/>
       <use xlink:href="#MicrosoftYaHei-2e" transform="translate(58.642578 0)"/>
       <use xlink:href="#MicrosoftYaHei-34" transform="translate(82.714844 0)"/>
      </g>
     </g>
    </g>
    <g id="xtick_9">
     <g id="line2d_29">
      <g>
       <use xlink:href="#m3077f8d131" x="693.298072" y="284.021071" style="stroke: #000000; stroke-width: 0.8"/>
      </g>
     </g>
     <g id="text_25">
      <!-- 0.6 -->
      <g transform="translate(686.230103 299.014821) scale(0.1 -0.1)">
       <use xlink:href="#MicrosoftYaHei-30"/>
       <use xlink:href="#MicrosoftYaHei-2e" transform="translate(58.642578 0)"/>
       <use xlink:href="#MicrosoftYaHei-36" transform="translate(82.714844 0)"/>
      </g>
     </g>
    </g>
    <g id="xtick_10">
     <g id="line2d_30">
      <g>
       <use xlink:href="#m3077f8d131" x="762.55002" y="284.021071" style="stroke: #000000; stroke-width: 0.8"/>
      </g>
     </g>
     <g id="text_26">
      <!-- 0.8 -->
      <g transform="translate(755.482052 299.014821) scale(0.1 -0.1)">
       <use xlink:href="#MicrosoftYaHei-30"/>
       <use xlink:href="#MicrosoftYaHei-2e" transform="translate(58.642578 0)"/>
       <use xlink:href="#MicrosoftYaHei-38" transform="translate(82.714844 0)"/>
      </g>
     </g>
    </g>
    <g id="xtick_11">
     <g id="line2d_31">
      <g>
       <use xlink:href="#m3077f8d131" x="831.801968" y="284.021071" style="stroke: #000000; stroke-width: 0.8"/>
      </g>
     </g>
     <g id="text_27">
      <!-- 1.0 -->
      <g transform="translate(824.734 299.014821) scale(0.1 -0.1)">
       <use xlink:href="#MicrosoftYaHei-31"/>
       <use xlink:href="#MicrosoftYaHei-2e" transform="translate(58.642578 0)"/>
       <use xlink:href="#MicrosoftYaHei-30" transform="translate(82.714844 0)"/>
      </g>
     </g>
    </g>
    <g id="text_28">
     <!-- 平均置信度 -->
     <g transform="translate(633.672098 313.494509) scale(0.1 -0.1)">
      <defs>
       <path id="MicrosoftYaHei-5e73" d="M 169 1934
L 2938 1934
L 2938 4547
L 450 4547
L 450 5028
L 5975 5028
L 5975 4547
L 3463 4547
L 3463 1934
L 6250 1934
L 6250 1453
L 3463 1453
L 3463 -847
L 2938 -847
L 2938 1453
L 169 1453
L 169 1934
z
M 3950 2559
Q 4638 3284 5188 4159
L 5656 3859
Q 4950 2891 4338 2234
L 3950 2559
z
M 769 3859
L 1163 4134
Q 1863 3316 2369 2553
L 1925 2222
Q 1444 3003 769 3859
z
" transform="scale(0.015625)"/>
       <path id="MicrosoftYaHei-5747" d="M 2244 2803
Q 2931 3953 3338 5322
L 3838 5172
Q 3691 4744 3531 4347
L 6013 4347
Q 5925 1053 5875 297
Q 5831 -697 4806 -697
Q 4188 -697 3706 -672
Q 3669 -422 3606 -141
L 3625 -141
Q 4250 -209 4775 -209
Q 5350 -209 5394 378
Q 5456 1447 5513 3891
L 3341 3891
Q 3028 3172 2675 2572
Q 2481 2691 2244 2803
z
M 81 428
Q 559 600 1006 769
L 1006 3253
L 169 3253
L 169 3697
L 1006 3697
L 1006 5259
L 1469 5259
L 1469 3697
L 2281 3697
L 2281 3253
L 1469 3253
L 1469 947
Q 1922 1125 2338 1303
Q 2350 991 2369 784
Q 1363 403 250 -53
L 81 428
z
M 2513 853
Q 3769 1353 5119 1934
Q 5150 1641 5188 1434
Q 4031 947 2706 359
L 2513 853
z
M 3138 2909
L 3481 3216
Q 4025 2716 4531 2216
L 4125 1859
Q 3644 2409 3138 2909
z
" transform="scale(0.015625)"/>
      </defs>
      <use xlink:href="#MicrosoftYaHei-5e73"/>
      <use xlink:href="#MicrosoftYaHei-5747" transform="translate(100 0)"/>
      <use xlink:href="#MicrosoftYaHei-7f6e" transform="translate(200 0)"/>
      <use xlink:href="#MicrosoftYaHei-4fe1" transform="translate(300 0)"/>
      <use xlink:href="#MicrosoftYaHei-5ea6" transform="translate(400 0)"/>
     </g>
    </g>
   </g>
   <g id="matplotlib.axis_4">
    <g id="ytick_7">
     <g id="line2d_32">
      <g>
       <use xlink:href="#m6d447382d4" x="468.229241" y="272.147045" style="stroke: #000000; stroke-width: 0.8"/>
      </g>
     </g>
     <g id="text_29">
      <!-- 0.0 -->
      <g transform="translate(447.093304 276.14392) scale(0.1 -0.1)">
       <use xlink:href="#MicrosoftYaHei-30"/>
       <use xlink:href="#MicrosoftYaHei-2e" transform="translate(58.642578 0)"/>
       <use xlink:href="#MicrosoftYaHei-30" transform="translate(82.714844 0)"/>
      </g>
     </g>
    </g>
    <g id="ytick_8">
     <g id="line2d_33">
      <g>
       <use xlink:href="#m6d447382d4" x="468.229241" y="224.650942" style="stroke: #000000; stroke-width: 0.8"/>
      </g>
     </g>
     <g id="text_30">
      <!-- 0.2 -->
      <g transform="translate(447.093304 228.647817) scale(0.1 -0.1)">
       <use xlink:href="#MicrosoftYaHei-30"/>
       <use xlink:href="#MicrosoftYaHei-2e" transform="translate(58.642578 0)"/>
       <use xlink:href="#MicrosoftYaHei-32" transform="translate(82.714844 0)"/>
      </g>
     </g>
    </g>
    <g id="ytick_9">
     <g id="line2d_34">
      <g>
       <use xlink:href="#m6d447382d4" x="468.229241" y="177.154838" style="stroke: #000000; stroke-width: 0.8"/>
      </g>
     </g>
     <g id="text_31">
      <!-- 0.4 -->
      <g transform="translate(447.093304 181.151713) scale(0.1 -0.1)">
       <use xlink:href="#MicrosoftYaHei-30"/>
       <use xlink:href="#MicrosoftYaHei-2e" transform="translate(58.642578 0)"/>
       <use xlink:href="#MicrosoftYaHei-34" transform="translate(82.714844 0)"/>
      </g>
     </g>
    </g>
    <g id="ytick_10">
     <g id="line2d_35">
      <g>
       <use xlink:href="#m6d447382d4" x="468.229241" y="129.658734" style="stroke: #000000; stroke-width: 0.8"/>
      </g>
     </g>
     <g id="text_32">
      <!-- 0.6 -->
      <g transform="translate(447.093304 133.655609) scale(0.1 -0.1)">
       <use xlink:href="#MicrosoftYaHei-30"/>
       <use xlink:href="#MicrosoftYaHei-2e" transform="translate(58.642578 0)"/>
       <use xlink:href="#MicrosoftYaHei-36" transform="translate(82.714844 0)"/>
      </g>
     </g>
    </g>
    <g id="ytick_11">
     <g id="line2d_36">
      <g>
       <use xlink:href="#m6d447382d4" x="468.229241" y="82.16263" style="stroke: #000000; stroke-width: 0.8"/>
      </g>
     </g>
     <g id="text_33">
      <!-- 0.8 -->
      <g transform="translate(447.093304 86.159505) scale(0.1 -0.1)">
       <use xlink:href="#MicrosoftYaHei-30"/>
       <use xlink:href="#MicrosoftYaHei-2e" transform="translate(58.642578 0)"/>
       <use xlink:href="#MicrosoftYaHei-38" transform="translate(82.714844 0)"/>
      </g>
     </g>
    </g>
    <g id="ytick_12">
     <g id="line2d_37">
      <g>
       <use xlink:href="#m6d447382d4" x="468.229241" y="34.666526" style="stroke: #000000; stroke-width: 0.8"/>
      </g>
     </g>
     <g id="text_34">
      <!-- 1.0 -->
      <g transform="translate(447.093304 38.663401) scale(0.1 -0.1)">
       <use xlink:href="#MicrosoftYaHei-31"/>
       <use xlink:href="#MicrosoftYaHei-2e" transform="translate(58.642578 0)"/>
       <use xlink:href="#MicrosoftYaHei-30" transform="translate(82.714844 0)"/>
      </g>
     </g>
    </g>
    <g id="text_35">
     <!-- 实际正确率 -->
     <g transform="translate(440.607366 178.406786) rotate(-90) scale(0.1 -0.1)">
      <defs>
       <path id="MicrosoftYaHei-6b63" d="M 88 66
L 1106 66
L 1106 3416
L 1644 3416
L 1644 66
L 3231 66
L 3231 4309
L 375 4309
L 375 4797
L 6063 4797
L 6063 4309
L 3769 4309
L 3769 2672
L 5850 2672
L 5850 2191
L 3769 2191
L 3769 66
L 6313 66
L 6313 -422
L 88 -422
L 88 66
z
" transform="scale(0.015625)"/>
       <path id="MicrosoftYaHei-786e" d="M 2075 3453
Q 2956 4334 3456 5359
L 3931 5272
Q 3781 4991 3619 4722
L 5438 4722
L 5438 4328
L 4909 3666
L 6063 3666
L 6063 -53
Q 6063 -728 5475 -728
Q 5144 -728 4906 -716
Q 4869 -497 4813 -259
Q 5156 -291 5331 -291
Q 5619 -291 5619 16
L 5619 734
L 4588 734
L 4588 -659
L 4144 -659
L 4144 734
L 3113 734
Q 2944 -263 2444 -884
Q 2288 -703 2081 -509
Q 2756 291 2756 1841
L 2756 3506
Q 2597 3316 2431 3134
Q 2281 3278 2075 3453
z
M 31 1691
Q 741 2834 1066 4291
L 231 4291
L 231 4716
L 2469 4716
L 2469 4291
L 1509 4291
Q 1356 3613 1128 2991
L 2200 2991
L 2200 128
L 1150 128
L 1150 -347
L 738 -347
L 738 2059
Q 559 1691 350 1347
Q 225 1497 31 1691
z
M 1788 541
L 1788 2578
L 1150 2578
L 1150 541
L 1788 541
z
M 4875 4322
L 3366 4322
Q 3138 3981 2884 3666
L 4384 3666
L 4875 4322
z
M 4588 1134
L 5619 1134
L 5619 1991
L 4588 1991
L 4588 1134
z
M 5619 3241
L 4588 3241
L 4588 2391
L 5619 2391
L 5619 3241
z
M 3166 1134
L 4144 1134
L 4144 1991
L 3200 1991
Q 3200 1841 3166 1134
z
M 3200 2391
L 4144 2391
L 4144 3241
L 3200 3241
L 3200 2391
z
" transform="scale(0.015625)"/>
      </defs>
      <use xlink:href="#MicrosoftYaHei-5b9e"/>
      <use xlink:href="#MicrosoftYaHei-9645" transform="translate(100 0)"/>
      <use xlink:href="#MicrosoftYaHei-6b63" transform="translate(200 0)"/>
      <use xlink:href="#MicrosoftYaHei-786e" transform="translate(300 0)"/>
      <use xlink:href="#MicrosoftYaHei-7387" transform="translate(400 0)"/>
     </g>
    </g>
   </g>
   <g id="line2d_38">
    <path d="M 544.966838 232.566958
L 571.784292 246.57222
L 590.150052 243.77548
L 613.49988 228.879372
L 635.867781 229.466215
L 660.180704 215.151722
L 681.928908 203.164606
L 704.647295 200.543932
L 728.501905 204.270921
L 751.333496 197.696269
L 774.609561 200.263657
L 798.432531 191.29919
L 831.245095 129.231744
" clip-path="url(#pe9870ef388)" style="fill: none; stroke: #1f77b4; stroke-width: 1.5; stroke-linecap: square"/>
    <g clip-path="url(#pe9870ef388)">
     <use xlink:href="#m0a2bc25930" x="544.966838" y="232.566958" style="fill: #1f77b4; stroke: #1f77b4"/>
     <use xlink:href="#m0a2bc25930" x="571.784292" y="246.57222" style="fill: #1f77b4; stroke: #1f77b4"/>
     <use xlink:href="#m0a2bc25930" x="590.150052" y="243.77548" style="fill: #1f77b4; stroke: #1f77b4"/>
     <use xlink:href="#m0a2bc25930" x="613.49988" y="228.879372" style="fill: #1f77b4; stroke: #1f77b4"/>
     <use xlink:href="#m0a2bc25930" x="635.867781" y="229.466215" style="fill: #1f77b4; stroke: #1f77b4"/>
     <use xlink:href="#m0a2bc25930" x="660.180704" y="215.151722" style="fill: #1f77b4; stroke: #1f77b4"/>
     <use xlink:href="#m0a2bc25930" x="681.928908" y="203.164606" style="fill: #1f77b4; stroke: #1f77b4"/>
     <use xlink:href="#m0a2bc25930" x="704.647295" y="200.543932" style="fill: #1f77b4; stroke: #1f77b4"/>
     <use xlink:href="#m0a2bc25930" x="728.501905" y="204.270921" style="fill: #1f77b4; stroke: #1f77b4"/>
     <use xlink:href="#m0a2bc25930" x="751.333496" y="197.696269" style="fill: #1f77b4; stroke: #1f77b4"/>
     <use xlink:href="#m0a2bc25930" x="774.609561" y="200.263657" style="fill: #1f77b4; stroke: #1f77b4"/>
     <use xlink:href="#m0a2bc25930" x="798.432531" y="191.29919" style="fill: #1f77b4; stroke: #1f77b4"/>
     <use xlink:href="#m0a2bc25930" x="831.245095" y="129.231744" style="fill: #1f77b4; stroke: #1f77b4"/>
    </g>
   </g>
   <g id="line2d_39">
    <path d="M 574.066507 209.758098
L 592.415261 229.905538
L 614.520618 218.575898
L 635.006498 216.663095
L 657.799763 190.162449
L 681.518631 173.536592
L 704.819381 161.893056
L 727.829311 150.392477
L 751.020819 143.57121
L 774.232245 136.309159
L 797.635899 120.241134
L 826.619717 57.679362
" clip-path="url(#pe9870ef388)" style="fill: none; stroke: #ff7f0e; stroke-width: 1.5; stroke-linecap: square"/>
    <g clip-path="url(#pe9870ef388)">
     <use xlink:href="#m775bb933c4" x="574.066507" y="209.758098" style="fill: #ff7f0e; stroke: #ff7f0e"/>
     <use xlink:href="#m775bb933c4" x="592.415261" y="229.905538" style="fill: #ff7f0e; stroke: #ff7f0e"/>
     <use xlink:href="#m775bb933c4" x="614.520618" y="218.575898" style="fill: #ff7f0e; stroke: #ff7f0e"/>
     <use xlink:href="#m775bb933c4" x="635.006498" y="216.663095" style="fill: #ff7f0e; stroke: #ff7f0e"/>
     <use xlink:href="#m775bb933c4" x="657.799763" y="190.162449" style="fill: #ff7f0e; stroke: #ff7f0e"/>
     <use xlink:href="#m775bb933c4" x="681.518631" y="173.536592" style="fill: #ff7f0e; stroke: #ff7f0e"/>
     <use xlink:href="#m775bb933c4" x="704.819381" y="161.893056" style="fill: #ff7f0e; stroke: #ff7f0e"/>
     <use xlink:href="#m775bb933c4" x="727.829311" y="150.392477" style="fill: #ff7f0e; stroke: #ff7f0e"/>
     <use xlink:href="#m775bb933c4" x="751.020819" y="143.57121" style="fill: #ff7f0e; stroke: #ff7f0e"/>
     <use xlink:href="#m775bb933c4" x="774.232245" y="136.309159" style="fill: #ff7f0e; stroke: #ff7f0e"/>
     <use xlink:href="#m775bb933c4" x="797.635899" y="120.241134" style="fill: #ff7f0e; stroke: #ff7f0e"/>
     <use xlink:href="#m775bb933c4" x="826.619717" y="57.679362" style="fill: #ff7f0e; stroke: #ff7f0e"/>
    </g>
   </g>
   <g id="line2d_40">
    <path d="M 575.59086 213.960934
L 592.42169 219.821038
L 611.482737 228.170058
L 634.460058 191.591263
L 658.398398 164.866315
L 681.556689 149.816073
L 704.819794 138.201844
L 727.868607 129.643243
L 751.076338 119.764537
L 774.3859 111.206685
L 797.769741 101.548117
L 824.997764 62.909514
" clip-path="url(#pe9870ef388)" style="fill: none; stroke: #2ca02c; stroke-width: 1.5; stroke-linecap: square"/>
    <g clip-path="url(#pe9870ef388)">
     <use xlink:href="#m7b3faa37e8" x="575.59086" y="213.960934" style="fill: #2ca02c; stroke: #2ca02c"/>
     <use xlink:href="#m7b3faa37e8" x="592.42169" y="219.821038" style="fill: #2ca02c; stroke: #2ca02c"/>
     <use xlink:href="#m7b3faa37e8" x="611.482737" y="228.170058" style="fill: #2ca02c; stroke: #2ca02c"/>
     <use xlink:href="#m7b3faa37e8" x="634.460058" y="191.591263" style="fill: #2ca02c; stroke: #2ca02c"/>
     <use xlink:href="#m7b3faa37e8" x="658.398398" y="164.866315" style="fill: #2ca02c; stroke: #2ca02c"/>
     <use xlink:href="#m7b3faa37e8" x="681.556689" y="149.816073" style="fill: #2ca02c; stroke: #2ca02c"/>
     <use xlink:href="#m7b3faa37e8" x="704.819794" y="138.201844" style="fill: #2ca02c; stroke: #2ca02c"/>
     <use xlink:href="#m7b3faa37e8" x="727.868607" y="129.643243" style="fill: #2ca02c; stroke: #2ca02c"/>
     <use xlink:href="#m7b3faa37e8" x="751.076338" y="119.764537" style="fill: #2ca02c; stroke: #2ca02c"/>
     <use xlink:href="#m7b3faa37e8" x="774.3859" y="111.206685" style="fill: #2ca02c; stroke: #2ca02c"/>
     <use xlink:href="#m7b3faa37e8" x="797.769741" y="101.548117" style="fill: #2ca02c; stroke: #2ca02c"/>
     <use xlink:href="#m7b3faa37e8" x="824.997764" y="62.909514" style="fill: #2ca02c; stroke: #2ca02c"/>
    </g>
   </g>
   <g id="line2d_41">
    <path d="M 573.898054 240.178512
L 593.467494 219.048086
L 615.181809 212.937907
L 636.772282 213.804858
L 658.992989 215.850003
L 681.334307 202.819239
L 703.386726 187.027682
L 727.689979 169.687538
L 751.192244 164.01566
L 774.367676 153.900461
L 797.775519 136.874493
L 826.133305 68.64051
" clip-path="url(#pe9870ef388)" style="fill: none; stroke: #d62728; stroke-width: 1.5; stroke-linecap: square"/>
    <g clip-path="url(#pe9870ef388)">
     <use xlink:href="#mb88ca8ca68" x="573.898054" y="240.178512" style="fill: #d62728; stroke: #d62728"/>
     <use xlink:href="#mb88ca8ca68" x="593.467494" y="219.048086" style="fill: #d62728; stroke: #d62728"/>
     <use xlink:href="#mb88ca8ca68" x="615.181809" y="212.937907" style="fill: #d62728; stroke: #d62728"/>
     <use xlink:href="#mb88ca8ca68" x="636.772282" y="213.804858" style="fill: #d62728; stroke: #d62728"/>
     <use xlink:href="#mb88ca8ca68" x="658.992989" y="215.850003" style="fill: #d62728; stroke: #d62728"/>
     <use xlink:href="#mb88ca8ca68" x="681.334307" y="202.819239" style="fill: #d62728; stroke: #d62728"/>
     <use xlink:href="#mb88ca8ca68" x="703.386726" y="187.027682" style="fill: #d62728; stroke: #d62728"/>
     <use xlink:href="#mb88ca8ca68" x="727.689979" y="169.687538" style="fill: #d62728; stroke: #d62728"/>
     <use xlink:href="#mb88ca8ca68" x="751.192244" y="164.01566" style="fill: #d62728; stroke: #d62728"/>
     <use xlink:href="#mb88ca8ca68" x="774.367676" y="153.900461" style="fill: #d62728; stroke: #d62728"/>
     <use xlink:href="#mb88ca8ca68" x="797.775519" y="136.874493" style="fill: #d62728; stroke: #d62728"/>
     <use xlink:href="#mb88ca8ca68" x="826.133305" y="68.64051" style="fill: #d62728; stroke: #d62728"/>
    </g>
   </g>
   <g id="line2d_42">
    <path d="M 573.522131 238.221255
L 593.960305 221.439461
L 615.199435 212.906076
L 637.273937 201.464427
L 659.491764 206.787493
L 682.775631 213.90844
L 703.246878 192.845993
L 727.788198 176.157904
L 751.015598 166.573451
L 774.565374 158.136617
L 797.786602 141.905513
L 826.020184 69.268706
" clip-path="url(#pe9870ef388)" style="fill: none; stroke: #9467bd; stroke-width: 1.5; stroke-linecap: square"/>
    <g clip-path="url(#pe9870ef388)">
     <use xlink:href="#m770fa051e7" x="573.522131" y="238.221255" style="fill: #9467bd; stroke: #9467bd"/>
     <use xlink:href="#m770fa051e7" x="593.960305" y="221.439461" style="fill: #9467bd; stroke: #9467bd"/>
     <use xlink:href="#m770fa051e7" x="615.199435" y="212.906076" style="fill: #9467bd; stroke: #9467bd"/>
     <use xlink:href="#m770fa051e7" x="637.273937" y="201.464427" style="fill: #9467bd; stroke: #9467bd"/>
     <use xlink:href="#m770fa051e7" x="659.491764" y="206.787493" style="fill: #9467bd; stroke: #9467bd"/>
     <use xlink:href="#m770fa051e7" x="682.775631" y="213.90844" style="fill: #9467bd; stroke: #9467bd"/>
     <use xlink:href="#m770fa051e7" x="703.246878" y="192.845993" style="fill: #9467bd; stroke: #9467bd"/>
     <use xlink:href="#m770fa051e7" x="727.788198" y="176.157904" style="fill: #9467bd; stroke: #9467bd"/>
     <use xlink:href="#m770fa051e7" x="751.015598" y="166.573451" style="fill: #9467bd; stroke: #9467bd"/>
     <use xlink:href="#m770fa051e7" x="774.565374" y="158.136617" style="fill: #9467bd; stroke: #9467bd"/>
     <use xlink:href="#m770fa051e7" x="797.786602" y="141.905513" style="fill: #9467bd; stroke: #9467bd"/>
     <use xlink:href="#m770fa051e7" x="826.020184" y="69.268706" style="fill: #9467bd; stroke: #9467bd"/>
    </g>
   </g>
   <g id="line2d_43">
    <path d="M 550.153067 217.789202
L 567.969049 190.859679
L 592.060008 164.632752
L 605.237738 89.97239
" clip-path="url(#pe9870ef388)" style="fill: none; stroke: #8c564b; stroke-width: 1.5; stroke-linecap: square"/>
    <g clip-path="url(#pe9870ef388)">
     <use xlink:href="#m60d13fad78" x="550.153067" y="217.789202" style="fill: #8c564b; stroke: #8c564b"/>
     <use xlink:href="#m60d13fad78" x="567.969049" y="190.859679" style="fill: #8c564b; stroke: #8c564b"/>
     <use xlink:href="#m60d13fad78" x="592.060008" y="164.632752" style="fill: #8c564b; stroke: #8c564b"/>
     <use xlink:href="#m60d13fad78" x="605.237738" y="89.97239" style="fill: #8c564b; stroke: #8c564b"/>
    </g>
   </g>
   <g id="line2d_44">
    <path d="M 485.542228 272.147045
L 831.801968 34.666526
" clip-path="url(#pe9870ef388)" style="fill: none; stroke-dasharray: 5.55,2.4; stroke-dashoffset: 0; stroke: #999999; stroke-width: 1.5"/>
   </g>
   <g id="patch_7">
    <path d="M 468.229241 284.021071
L 468.229241 22.7925
" style="fill: none; stroke: #000000; stroke-width: 0.8; stroke-linejoin: miter; stroke-linecap: square"/>
   </g>
   <g id="patch_8">
    <path d="M 468.229241 284.021071
L 849.114955 284.021071
" style="fill: none; stroke: #000000; stroke-width: 0.8; stroke-linejoin: miter; stroke-linecap: square"/>
   </g>
   <g id="text_36">
    <!-- 低仰角LEO：15等宽区间可靠性 -->
    <g transform="translate(574.367411 16.7925) scale(0.12 -0.12)">
     <defs>
      <path id="MicrosoftYaHei-7b49" d="M 125 2303
L 2913 2303
L 2913 2922
L 563 2922
L 563 3328
L 2913 3328
L 2913 3822
L 3400 3822
L 3400 3328
L 5850 3328
L 5850 2922
L 3400 2922
L 3400 2303
L 6288 2303
L 6288 1884
L 125 1884
L 125 2303
z
M 338 1272
L 4250 1272
L 4250 1766
L 4738 1766
L 4738 1272
L 6075 1272
L 6075 853
L 4738 853
L 4738 22
Q 4738 -766 3925 -766
Q 3450 -766 2969 -759
Q 2938 -534 2875 -228
Q 3375 -278 3794 -278
Q 4250 -278 4250 91
L 4250 853
L 338 853
L 338 1272
z
M 1294 5347
L 1831 5347
Q 1688 5041 1513 4759
L 3325 4759
L 3325 4372
L 1244 4372
Q 875 3878 388 3459
Q 263 3609 75 3797
Q 856 4428 1294 5347
z
M 3969 5347
L 4506 5347
Q 4366 5038 4213 4759
L 6225 4759
L 6225 4372
L 3984 4372
Q 3772 4038 3538 3759
Q 3275 3947 3119 4009
Q 3663 4597 3969 5347
z
M 1500 491
L 1831 809
Q 2256 447 2700 28
L 2338 -316
Q 2000 41 1500 491
z
M 2019 3441
Q 1781 3753 1500 4078
L 1825 4309
Q 2125 4022 2388 3722
L 2019 3441
z
M 4744 3441
Q 4625 3628 4238 4078
L 4563 4309
Q 4900 3984 5113 3722
L 4744 3441
z
" transform="scale(0.015625)"/>
      <path id="MicrosoftYaHei-5bbd" d="M 3356 1797
Q 3344 1394 3269 1066
L 3694 1066
L 3694 134
Q 3694 -291 4138 -291
L 5150 -291
Q 5619 -291 5713 -3
Q 5781 228 5825 741
Q 6050 641 6313 559
Q 6238 97 6163 -172
Q 6013 -722 5331 -722
L 4000 -722
Q 3213 -722 3213 72
L 3213 850
Q 2913 -409 406 -853
Q 288 -609 144 -391
Q 1656 -128 2288 353
Q 2856 797 2869 1797
L 3356 1797
z
M 225 3528
L 1925 3528
L 1925 4022
L 2413 4022
L 2413 3528
L 3988 3528
L 3988 4022
L 4475 4022
L 4475 3528
L 6200 3528
L 6200 3091
L 4475 3091
L 4475 2622
L 3988 2622
L 3988 3091
L 2413 3091
L 2413 2622
L 1925 2622
L 1925 3091
L 225 3091
L 225 3528
z
M 875 2434
L 5338 2434
L 5338 397
L 4850 397
L 4850 2003
L 1363 2003
L 1363 347
L 875 347
L 875 2434
z
M 363 4666
L 3003 4666
Q 2869 4909 2719 5134
L 3194 5347
Q 3428 4991 3603 4666
L 6031 4666
L 6031 3672
L 5531 3672
L 5531 4228
L 863 4228
L 863 3672
L 363 3672
L 363 4666
z
" transform="scale(0.015625)"/>
      <path id="MicrosoftYaHei-533a" d="M 600 4872
L 5975 4872
L 5975 4384
L 1131 4384
L 1131 22
L 6075 22
L 6075 -453
L 600 -453
L 600 4872
z
M 1613 3697
L 1963 4028
Q 2744 3384 3597 2616
Q 4250 3322 4850 4153
L 5306 3847
Q 4650 2997 3975 2272
Q 4753 1563 5588 753
L 5156 316
Q 4400 1106 3600 1878
Q 2697 963 1763 266
Q 1613 459 1363 672
Q 2344 1341 3228 2231
Q 2444 2972 1613 3697
z
" transform="scale(0.015625)"/>
      <path id="MicrosoftYaHei-95f4" d="M 1863 3647
L 4513 3647
L 4513 553
L 2313 553
L 2313 166
L 1863 166
L 1863 3647
z
M 2388 4453
L 2388 4922
L 6013 4922
L 6013 -28
Q 6013 -816 5119 -816
Q 4756 -816 4169 -803
Q 4144 -616 4069 -297
Q 4588 -334 5056 -334
Q 5525 -334 5525 122
L 5525 4453
L 2388 4453
z
M 419 4084
L 906 4084
L 906 -816
L 419 -816
L 419 4084
z
M 2313 997
L 4063 997
L 4063 1884
L 2313 1884
L 2313 997
z
M 4063 3203
L 2313 3203
L 2313 2328
L 4063 2328
L 4063 3203
z
M 744 5003
L 1100 5322
Q 1575 4872 1981 4447
L 1575 4091
Q 1194 4541 744 5003
z
" transform="scale(0.015625)"/>
      <path id="MicrosoftYaHei-53ef" d="M 813 3409
L 3569 3409
L 3569 941
L 1306 941
L 1306 497
L 813 497
L 813 3409
z
M 119 4809
L 6294 4809
L 6294 4334
L 5256 4334
L 5256 103
Q 5256 -741 4438 -747
Q 3850 -747 3294 -741
Q 3263 -453 3194 -172
Q 3900 -222 4269 -222
Q 4731 -222 4731 278
L 4731 4334
L 119 4334
L 119 4809
z
M 3075 2966
L 1306 2966
L 1306 1384
L 3075 1384
L 3075 2966
z
" transform="scale(0.015625)"/>
      <path id="MicrosoftYaHei-9760" d="M 1050 3272
L 5350 3272
L 5350 1947
L 4900 1947
L 4900 2078
L 1500 2078
L 1500 1947
L 1050 1947
L 1050 3272
z
M 163 4034
L 2963 4034
L 2963 4472
L 1375 4472
Q 1169 4269 950 4084
Q 769 4253 575 4359
Q 1169 4784 1563 5328
L 2000 5159
Q 1863 4991 1722 4834
L 2963 4834
L 2963 5322
L 3438 5322
L 3438 4834
L 5706 4834
L 5706 4472
L 3438 4472
L 3438 4034
L 6238 4034
L 6238 3659
L 163 3659
L 163 4034
z
M 3650 -828
L 3650 1959
L 4113 1959
L 4113 1659
L 6088 1659
L 6088 1284
L 4113 1284
L 4113 891
L 5950 891
L 5950 547
L 4113 547
L 4113 141
L 6275 141
L 6275 -272
L 4113 -272
L 4113 -828
L 3650 -828
z
M 2294 -828
L 2294 -253
L 150 -253
L 150 122
L 2294 122
L 2294 528
L 463 528
L 463 891
L 2294 891
L 2294 1284
L 331 1284
L 331 1659
L 2294 1659
L 2294 1959
L 2756 1959
L 2756 -828
L 2294 -828
z
M 4900 2909
L 1500 2909
L 1500 2441
L 4900 2441
L 4900 2909
z
" transform="scale(0.015625)"/>
      <path id="MicrosoftYaHei-6027" d="M 1963 -153
L 3988 -153
L 3988 1522
L 2375 1522
L 2375 1959
L 3988 1959
L 3988 3472
L 2975 3472
Q 2744 2878 2438 2291
Q 2169 2509 2019 2578
Q 2644 3709 2894 4891
L 3388 4759
Q 3281 4328 3138 3909
L 3988 3909
L 3988 5284
L 4481 5284
L 4481 3909
L 6125 3909
L 6125 3472
L 4481 3472
L 4481 1959
L 6000 1959
L 6000 1522
L 4481 1522
L 4481 -153
L 6319 -153
L 6319 -591
L 1963 -591
L 1963 -153
z
M 988 5291
L 1469 5291
L 1469 4091
L 1738 4241
Q 2063 3734 2294 3291
L 1906 3041
Q 1688 3503 1469 3859
L 1469 -872
L 988 -872
L 988 5291
z
M 406 3878
L 819 3784
Q 706 3028 506 2178
Q 338 2241 75 2297
Q 263 2978 406 3878
z
" transform="scale(0.015625)"/>
     </defs>
     <use xlink:href="#MicrosoftYaHei-4f4e"/>
     <use xlink:href="#MicrosoftYaHei-4ef0" transform="translate(100 0)"/>
     <use xlink:href="#MicrosoftYaHei-89d2" transform="translate(200 0)"/>
     <use xlink:href="#MicrosoftYaHei-4c" transform="translate(300 0)"/>
     <use xlink:href="#MicrosoftYaHei-45" transform="translate(351.318359 0)"/>
     <use xlink:href="#MicrosoftYaHei-4f" transform="translate(406.298828 0)"/>
     <use xlink:href="#MicrosoftYaHei-ff1a" transform="translate(487.792969 0)"/>
     <use xlink:href="#MicrosoftYaHei-31" transform="translate(587.792969 0)"/>
     <use xlink:href="#MicrosoftYaHei-35" transform="translate(646.435547 0)"/>
     <use xlink:href="#MicrosoftYaHei-7b49" transform="translate(705.078125 0)"/>
     <use xlink:href="#MicrosoftYaHei-5bbd" transform="translate(805.078125 0)"/>
     <use xlink:href="#MicrosoftYaHei-533a" transform="translate(905.078125 0)"/>
     <use xlink:href="#MicrosoftYaHei-95f4" transform="translate(1005.078125 0)"/>
     <use xlink:href="#MicrosoftYaHei-53ef" transform="translate(1105.078125 0)"/>
     <use xlink:href="#MicrosoftYaHei-9760" transform="translate(1205.078125 0)"/>
     <use xlink:href="#MicrosoftYaHei-6027" transform="translate(1305.078125 0)"/>
    </g>
   </g>
   <g id="legend_2">
    <g id="patch_9">
     <path d="M 473.829241 66.34375
L 573.106741 66.34375
Q 574.706741 66.34375 574.706741 64.74375
L 574.706741 28.3925
Q 574.706741 26.7925 573.106741 26.7925
L 473.829241 26.7925
Q 472.229241 26.7925 472.229241 28.3925
L 472.229241 64.74375
Q 472.229241 66.34375 473.829241 66.34375
z
" style="fill: #ffffff; opacity: 0.8; stroke: #cccccc; stroke-linejoin: miter"/>
    </g>
    <g id="line2d_45">
     <path d="M 475.429241 33.5875
L 483.429241 33.5875
L 491.429241 33.5875
" style="fill: none; stroke: #1f77b4; stroke-width: 1.5; stroke-linecap: square"/>
     <g>
      <use xlink:href="#m0a2bc25930" x="483.429241" y="33.5875" style="fill: #1f77b4; stroke: #1f77b4"/>
     </g>
    </g>
    <g id="text_37">
     <!-- H0 -->
     <g transform="translate(497.829241 36.3875) scale(0.08 -0.08)">
      <use xlink:href="#MicrosoftYaHei-48"/>
      <use xlink:href="#MicrosoftYaHei-30" transform="translate(77.34375 0)"/>
     </g>
    </g>
    <g id="line2d_46">
     <path d="M 475.429241 45.97125
L 483.429241 45.97125
L 491.429241 45.97125
" style="fill: none; stroke: #ff7f0e; stroke-width: 1.5; stroke-linecap: square"/>
     <g>
      <use xlink:href="#m775bb933c4" x="483.429241" y="45.97125" style="fill: #ff7f0e; stroke: #ff7f0e"/>
     </g>
    </g>
    <g id="text_38">
     <!-- H1 -->
     <g transform="translate(497.829241 48.77125) scale(0.08 -0.08)">
      <use xlink:href="#MicrosoftYaHei-48"/>
      <use xlink:href="#MicrosoftYaHei-31" transform="translate(77.34375 0)"/>
     </g>
    </g>
    <g id="line2d_47">
     <path d="M 475.429241 58.355
L 483.429241 58.355
L 491.429241 58.355
" style="fill: none; stroke: #2ca02c; stroke-width: 1.5; stroke-linecap: square"/>
     <g>
      <use xlink:href="#m7b3faa37e8" x="483.429241" y="58.355" style="fill: #2ca02c; stroke: #2ca02c"/>
     </g>
    </g>
    <g id="text_39">
     <!-- H2 -->
     <g transform="translate(497.829241 61.155) scale(0.08 -0.08)">
      <use xlink:href="#MicrosoftYaHei-48"/>
      <use xlink:href="#MicrosoftYaHei-32" transform="translate(77.34375 0)"/>
     </g>
    </g>
    <g id="line2d_48">
     <path d="M 524.707991 33.5875
L 532.707991 33.5875
L 540.707991 33.5875
" style="fill: none; stroke: #d62728; stroke-width: 1.5; stroke-linecap: square"/>
     <g>
      <use xlink:href="#mb88ca8ca68" x="532.707991" y="33.5875" style="fill: #d62728; stroke: #d62728"/>
     </g>
    </g>
    <g id="text_40">
     <!-- H3 -->
     <g transform="translate(547.107991 36.3875) scale(0.08 -0.08)">
      <use xlink:href="#MicrosoftYaHei-48"/>
      <use xlink:href="#MicrosoftYaHei-33" transform="translate(77.34375 0)"/>
     </g>
    </g>
    <g id="line2d_49">
     <path d="M 524.707991 45.97125
L 532.707991 45.97125
L 540.707991 45.97125
" style="fill: none; stroke: #9467bd; stroke-width: 1.5; stroke-linecap: square"/>
     <g>
      <use xlink:href="#m770fa051e7" x="532.707991" y="45.97125" style="fill: #9467bd; stroke: #9467bd"/>
     </g>
    </g>
    <g id="text_41">
     <!-- H4 -->
     <g transform="translate(547.107991 48.77125) scale(0.08 -0.08)">
      <use xlink:href="#MicrosoftYaHei-48"/>
      <use xlink:href="#MicrosoftYaHei-34" transform="translate(77.34375 0)"/>
     </g>
    </g>
    <g id="line2d_50">
     <path d="M 524.707991 58.355
L 532.707991 58.355
L 540.707991 58.355
" style="fill: none; stroke: #8c564b; stroke-width: 1.5; stroke-linecap: square"/>
     <g>
      <use xlink:href="#m60d13fad78" x="532.707991" y="58.355" style="fill: #8c564b; stroke: #8c564b"/>
     </g>
    </g>
    <g id="text_42">
     <!-- cosine -->
     <g transform="translate(547.107991 61.155) scale(0.08 -0.08)">
      <use xlink:href="#MicrosoftYaHei-63"/>
      <use xlink:href="#MicrosoftYaHei-6f" transform="translate(50.146484 0)"/>
      <use xlink:href="#MicrosoftYaHei-73" transform="translate(113.720703 0)"/>
      <use xlink:href="#MicrosoftYaHei-69" transform="translate(160.009766 0)"/>
      <use xlink:href="#MicrosoftYaHei-6e" transform="translate(186.621094 0)"/>
      <use xlink:href="#MicrosoftYaHei-65" transform="translate(248.242188 0)"/>
     </g>
    </g>
   </g>
  </g>
 </g>
 <defs>
  <clipPath id="p195508abac">
   <rect x="40.407813" y="22.7925" width="380.885714" height="261.228571"/>
  </clipPath>
  <clipPath id="pe9870ef388">
   <rect x="468.229241" y="22.7925" width="380.885714" height="261.228571"/>
  </clipPath>
 </defs>
</svg>
